<?xml version="1.0" encoding="utf-8"?>
<!-- Generator: Adobe Illustrator 21.0.1, SVG Export Plug-In . SVG Version: 6.00 Build 0)  -->
<svg version="1.1" id="Layer_1" xmlns="http://www.w3.org/2000/svg" xmlns:xlink="http://www.w3.org/1999/xlink" x="0px" y="0px"
	 viewBox="0 0 1280 1024" style="enable-background:new 0 0 1280 1024;" xml:space="preserve">
<style type="text/css">
	.st0{enable-background:new    ;}
	.st1{fill:#ABABAB;}
	.st2{fill:#FFFFFF;}
</style>
<g class="st0">
	<path d="M310,503.5c1.2,0,2.1,1.1,2.3,2.3l24.2,126.5c0.4,1.9-0.5,3.9-2.5,3.9h-28.7c-1.1,0-2.1-0.7-2.3-1.8l-3.5-26.5
		c-0.2-0.9-0.9-1.4-1.8-1.4h-9.6c-0.7,0-1.4,0.7-1.6,1.8l-3.4,26c-0.2,1.2-1.4,1.9-2.3,1.9h-29.2c-1.6,0-2.5-1.2-2.1-3l23.7-127.6
		c0.2-0.9,1.1-2.1,2.1-2.1H310z M294.4,570.2c-0.4-2.5-0.7-4.1-1.2-4.1s-0.9,1.2-1.2,4.1l-2.3,16.8c-0.2,0.9,0.2,1.8,1.1,1.8
		c5.7,0,6.2,0,6-1.6L294.4,570.2z"/>
	<path d="M340.2,506.5c0-1.8,0.9-3,2.5-3h41.2c8.1,0,34.3,5.8,34.3,39.3c0,16.5-14.7,32.7-31.7,32.7c-8.7,0-9.6,0-9.6,2.1v56.1
		c0,1.4-1.1,2.5-3,2.5h-31c-1.6,0-2.8-1.4-2.8-3.2V506.5z M377,552.7c0,0.7,0.5,1.9,1.8,1.9c2.7,0,3.7-2.3,3.7-5.8v-7.3
		c0-2.8-1.4-4.8-3.7-4.8c-0.5,0-0.9,0-1.2,0.2c-0.4,0.2-0.5,0.9-0.5,1.4V552.7z"/>
	<path d="M583.3,636.2c-0.7,0-1.4-0.9-1.4-1.6V505.3c0-0.9,0.5-1.8,1.4-1.8h47.4c0.9,0,1.6,0.7,1.8,1.8l5.3,35.2
		c0.2,1.2,0.5,1.8,0.9,1.8c0.4,0,0.7-0.7,0.7-1.9l4.2-34.9c0.2-1.1,0.9-1.9,1.9-1.9h49.2c1.2,0,1.9,0.7,1.9,1.9v129
		c0,1.1-0.9,1.8-1.9,1.8h-32c-1.1,0-1.9-0.7-1.9-1.9v-55.4c0-1.4-0.2-1.9-0.5-1.9s-0.7,0.7-1.2,3.5l-9.2,54.3
		c-0.2,1.1-1.1,1.4-1.9,1.4h-20c-0.9,0-1.6-0.7-1.9-1.9l-8.1-50.6c-0.5-3-1.2-3.5-1.8-3.5c-0.5,0-0.9,0.9-0.9,2.3v51.8
		c0,1.2-0.5,1.9-1.8,1.9H583.3z"/>
	<path d="M703.7,505.8c0-1.1,1.1-2.3,2.3-2.3h62.8c1.1,0,1.8,0.9,1.8,1.9v31.8c0,1.1-0.9,1.8-1.9,1.8h-29.5c-0.7,0-1.2,0.5-1.2,1.2
		v9.9c0,0.7,0.7,1.2,1.2,1.2h14c0.7,0,1.2,0.5,1.2,1.2v32.2c0,0.9-0.7,1.6-1.4,1.6h-14.3c-0.7,0-1.2,0.5-1.2,1.4v10.4
		c0,0.7,0.5,1.2,1.1,1.2H769c1.2,0,1.9,0.9,1.9,1.8v32.9c0,1.1-0.9,1.9-1.9,1.9h-63.3c-1.1,0-1.9-1.1-1.9-2.3V505.8z"/>
	<path d="M778,505.8c0-1.2,0.9-2.3,1.9-2.3h29.9c1.2,0,2.1,0.7,2.5,2.1l10.6,39.8c0.4,1.4,0.9,2.1,1.2,2.1c0.5,0,1.1-0.7,1.1-2.3
		v-39.5c0-1.2,0.9-2.3,2.1-2.3h26.5c1.4,0,2.3,1.2,2.3,2.5v127.9c0,1.2-0.7,2.3-1.9,2.3h-33.1c-0.7,0-1.8-0.7-1.9-1.8l-7.8-31.8
		c-0.4-1.8-1.1-2.5-1.6-2.5s-0.9,0.7-0.9,2.5v31.3c0,1.2-1.1,2.3-2.3,2.3h-26.9c-1.1,0-1.8-1.1-1.8-2.5V505.8z"/>
	<path d="M887.2,636.2c-1.2,0-2.5-1.1-2.5-2.5v-92.3c0-1.2-1.1-2.1-2.3-2.1h-17.7c-1.1,0-2.3-1.4-2.3-2.5v-31.5
		c0-1.1,0.5-1.8,1.6-1.8h75.7c1.2,0,2.3,0.7,2.3,2.1v31.1c0,1.4-1.1,2.5-2.5,2.5h-17.7c-1.2,0-2.1,0.9-2.1,2.5v92.2
		c0,1.2-1.1,2.3-2.5,2.3H887.2z"/>
</g>
<ellipse class="st1" cx="442.6" cy="598.2" rx="36.1" ry="38.4"/>
<path class="st1" d="M508.5,633.2h-20.8c-0.3,0-0.5-0.2-0.5-0.5v-70.2c0-0.3,0.2-0.5,0.5-0.5h20.8c0.3,0,0.5,0.2,0.5,0.5v70.2
	C509,633,508.8,633.2,508.5,633.2z"/>
<path class="st1" d="M561.1,633.2h-21.7c-0.3,0-0.5-0.2-0.5-0.5v-94.5c0-0.3,0.2-0.5,0.5-0.5h21.7c0.3,0,0.5,0.2,0.5,0.5v94.5
	C561.7,633,561.4,633.2,561.1,633.2z"/>
<path class="st1" d="M528.5,579.8v-17.3c0-0.3,0.2-0.5,0.5-0.5h41.1c0.3,0,0.5,0.2,0.5,0.5v17.3c0,0.3-0.2,0.5-0.5,0.5H529
	C528.8,580.3,528.5,580.1,528.5,579.8z"/>
<path class="st1" d="M507.9,567c11.8-10.7,17.1-7.8,17.1-7.8c0.6,0.4,1.1,1.2,1.1,1.9v17.8c0,0.8-0.6,1.4-1.4,1.4
	c0,0-15.4-1.8-15.9,15"/>
<path class="st1" d="M483.4,633.2h-21.1c-0.3,0-0.5-0.2-0.5-0.5v-70.2c0-0.3,0.2-0.5,0.5-0.5h21.1c0.3,0,0.5,0.2,0.5,0.5v70.2
	C483.9,633,483.7,633.2,483.4,633.2z"/>
<circle class="st2" cx="443.8" cy="596.5" r="17.9"/>
<circle class="st2" cx="292.2" cy="577.5" r="12.8"/>
<circle class="st2" cx="380.1" cy="540.2" r="14.8"/>
</svg>
