<?xml version="1.0" encoding="utf-8"?>
<!-- Generator: Adobe Illustrator 21.0.1, SVG Export Plug-In . SVG Version: 6.00 Build 0)  -->
<svg version="1.1" id="_x32_c0e92a2-3b92-4503-ac5a-7875ad7b75ff"
	 xmlns="http://www.w3.org/2000/svg" xmlns:xlink="http://www.w3.org/1999/xlink" x="0px" y="0px" viewBox="0 0 1699.8 995.9"
	 style="enable-background:new 0 0 1699.8 995.9;" xml:space="preserve">
<style type="text/css">
	.st0{fill:none;}
	.st1{fill:none;stroke:#000000;stroke-width:0.25;stroke-miterlimit:10;}
	.st2{fill:#FFFFFF;}
	.st3{fill:none;stroke:#000000;stroke-miterlimit:10;}
	.st4{fill:#C4C4C4;}
	.st5{fill:url(#SVGID_1_);}
	.st6{fill:#FFFFFF;stroke:#000000;stroke-miterlimit:10;}
	.st7{fill:none;stroke:#000000;stroke-linecap:round;stroke-miterlimit:10;}
	.st8{fill:url(#SVGID_2_);}
	.st9{fill:url(#SVGID_3_);}
	.st10{fill:url(#SVGID_4_);}
	.st11{fill:#ABABAB;stroke:#000000;stroke-width:1.0198;stroke-miterlimit:10;}
	.st12{fill:url(#SVGID_5_);}
	.st13{fill:none;stroke:#000000;stroke-width:0.5;stroke-miterlimit:10;}
	.st14{fill:url(#SVGID_6_);}
	.st15{fill:url(#SVGID_7_);}
	.st16{fill:url(#SVGID_8_);}
	.st17{fill:url(#SVGID_9_);}
	.st18{fill:url(#SVGID_10_);}
</style>
<pattern  y="995.9" width="1" height="3.9" patternUnits="userSpaceOnUse" id="New_Pattern_Swatch_1" viewBox="0 -3.9 1 3.9" style="overflow:visible;">
	<g>
		<rect y="-3.9" class="st0" width="1" height="3.9"/>
		<line class="st1" x1="0.5" y1="-3.9" x2="0.5" y2="0"/>
		<rect y="-3.3" class="st0" width="1" height="1.8"/>
	</g>
</pattern>
<title>bedroom</title>
<path class="st2" d="M926.5,418.4"/>
<line class="st3" x1="1318.3" y1="670.8" x2="1642.4" y2="794"/>
<line class="st3" x1="1317.6" y1="651.9" x2="1620" y2="766.7"/>
<line class="st3" x1="1320.7" y1="651.3" x2="1618.7" y2="764.4"/>
<path class="st3" d="M1321.3,565"/>
<line class="st3" x1="1318.3" y1="167" x2="1641.3" y2="4"/>
<line class="st3" x1="1317.6" y1="185.9" x2="1585.3" y2="51"/>
<polyline class="st3" points="1320.6,186.9 1119.9,186.9 867.2,186.9 "/>
<path class="st3" d="M1576.5,57.7"/>
<line class="st3" x1="1569.9" y1="61" x2="1576.5" y2="57.7"/>
<line class="st3" x1="1320.7" y1="186.5" x2="1569.9" y2="61"/>
<line class="st3" x1="932.8" y1="975.6" x2="871.4" y2="670.8"/>
<line class="st3" x1="1068.5" y1="999.1" x2="915.3" y2="671.5"/>
<line class="st3" x1="1280.8" y1="971.6" x2="1004.4" y2="670.8"/>
<line class="st3" x1="1321.3" y1="916.5" x2="1042.9" y2="670.8"/>
<line class="st3" x1="1426.1" y1="933.1" x2="1086.2" y2="672.4"/>
<line class="st3" x1="1530.6" y1="932.4" x2="1127.5" y2="670.8"/>
<line class="st3" x1="1683.8" y1="955.9" x2="1176" y2="671.1"/>
<line class="st3" x1="1575.4" y1="840" x2="1216.5" y2="671.1"/>
<line class="st3" x1="1697.5" y1="845.8" x2="1276" y2="672.1"/>
<line class="st3" x1="1154.2" y1="952.5" x2="960.9" y2="671.4"/>
<polyline class="st3" points="1318.3,652.5 937.6,652.5 758.1,652.5 377.4,652.5 "/>
<path class="st2" d="M769.1,418.4"/>
<polygon class="st4" points="93.8,85.1 332.9,204.2 332.1,629 93.4,695 "/>
<polyline class="st3" points="374.4,186.8 374.4,650.9 377.4,651.9 377.4,670.8 797.4,670.8 898.2,670.8 1318.3,670.8 1318.3,651.9 
	1321.3,650.9 1321.3,186.8 "/>
<line class="st3" x1="377.4" y1="670.8" x2="53.2" y2="794"/>
<line class="st3" x1="378" y1="651.9" x2="75.7" y2="766.7"/>
<polygon class="st3" points="353.1,635.2 93.3,718.4 93.8,85.7 353.9,197.4 "/>
<line class="st3" x1="332.1" y1="629" x2="93.3" y2="695"/>
<line class="st3" x1="93.8" y1="115.1" x2="332.8" y2="204.3"/>
<polyline class="st3" points="375,650.9 755.7,650.9 939.9,650.9 1320.6,650.9 "/>
<line class="st3" x1="374.9" y1="651.3" x2="76.9" y2="764.4"/>
<path class="st3" d="M374.4,565"/>
<polyline class="st3" points="374.4,186.9 377.4,185.9 377.4,167 797.4,167 898.2,167 1318.3,167 1318.3,185.9 1321.3,186.9 "/>
<line class="st3" x1="377.4" y1="167" x2="54.3" y2="4"/>
<line class="st3" x1="378" y1="185.9" x2="110.3" y2="51"/>
<polyline class="st3" points="377.4,185.3 578.1,185.3 829.5,185.3 866.2,185.3 1117.6,185.3 1318.3,185.3 "/>
<polyline class="st3" points="828.4,186.9 832.4,186.9 863.3,186.9 867.2,186.9 "/>
<polyline class="st3" points="375,186.9 575.7,186.9 828.4,186.9 "/>
<path class="st3" d="M119.1,57.7"/>
<line class="st3" x1="125.7" y1="61" x2="119.1" y2="57.7"/>
<line class="st3" x1="374.9" y1="186.5" x2="125.7" y2="61"/>
<line class="st3" x1="332.8" y1="205.3" x2="353.9" y2="198.4"/>
<line class="st3" x1="331.9" y1="628.1" x2="353" y2="634.2"/>
<pattern  id="SVGID_1_" xlink:href="#New_Pattern_Swatch_1" patternTransform="matrix(1.0191 1.4658 -1.8473 1.2844 -15523.5244 12947.2285)">
</pattern>
<polygon class="st5" points="93.3,695 332.1,629 332.8,204.3 93.8,115.1 93.8,85.7 353.9,197.4 353.1,635.2 93.3,718.4 "/>
<line class="st3" x1="762.8" y1="975.6" x2="824.2" y2="670.8"/>
<line class="st3" x1="627.2" y1="999.1" x2="780.3" y2="671.5"/>
<line class="st3" x1="414.8" y1="971.6" x2="691.2" y2="670.8"/>
<line class="st3" x1="374.4" y1="916.5" x2="652.7" y2="670.8"/>
<line class="st3" x1="269.6" y1="933.1" x2="609.4" y2="672.4"/>
<line class="st3" x1="165" y1="932.4" x2="568.1" y2="670.8"/>
<line class="st3" x1="11.9" y1="955.9" x2="519.6" y2="671.1"/>
<line class="st3" x1="120.3" y1="840" x2="479.2" y2="671.1"/>
<line class="st3" x1="-1.9" y1="845.8" x2="419.6" y2="672.1"/>
<line class="st3" x1="541.4" y1="952.5" x2="734.8" y2="671.4"/>
<g>
	<path class="st6" d="M546.9,692c0,0,14.8,0.6,23.7,6.5c0,0,2.4,1.9,0,4.2c0,0-6.3,5.3-28.9,5.3h-1.8c-22.6,0-28.9-5.3-28.9-5.3
		c-2.4-2.4,0-4.2,0-4.2c8.9-5.9,23.7-6.5,23.7-6.5l0.6-0.5c2.7-5,3-10.7,3-10.7s0-14.3,0-44.5c0-30.2-8.4-31.9-8.4-31.9
		c-26-1.3-38.7-4.3-42.6-6.3c-2.3-1.2,0.2-2.1,0.2-2.1c16-2.9,50-3.3,50-3.3h6.9c0,0,34,0.4,50,3.3c0,0,2.5,0.9,0.2,2.1
		c-3.9,2-16.6,5-42.6,6.3c0,0-8.4,1.7-8.4,31.9c0,30.2,0,44.5,0,44.5s0.3,5.7,3,10.7L546.9,692z"/>
	<path class="st7" d="M535.1,691.5c-1.7,3.2-4.5,6.1-8.8,7"/>
	<path class="st7" d="M555.1,698.4c-4.3-0.8-7-3.7-8.8-7"/>
	<path class="st3" d="M595,596.8c0,0-6.7,3.3-53.4,3.3h-1.8c-46.7,0-53.4-3.3-53.4-3.3"/>
	
		<pattern  id="SVGID_2_" xlink:href="#New_Pattern_Swatch_1" patternTransform="matrix(0.7892 1.135 -1.4305 0.9946 -13766.377 8141.0776)">
	</pattern>
	<path class="st8" d="M595.6,596.9c0,0-6.7,3.3-53.4,3.3h-1.8c-46.7,0-53.4-3.3-53.4-3.3l0.7,1.2c-2.3-1.2,0.2-2.1,0.2-2.1
		c16-2.9,50-3.3,50-3.3h6.9c0,0,34,0.4,50,3.3c0,0,2.5,0.9,0.2,2.1L595.6,596.9z"/>
	
		<pattern  id="SVGID_3_" xlink:href="#New_Pattern_Swatch_1" patternTransform="matrix(0.7892 1.135 -1.4305 0.9946 -13766.377 8141.0776)">
	</pattern>
	<path class="st9" d="M538.1,680.8c0,0-1.8,19.5-17.6,17.6l-6.2-1.9c0,0-17,7.9,20.4,11.3"/>
	
		<pattern  id="SVGID_4_" xlink:href="#New_Pattern_Swatch_1" patternTransform="matrix(0.7892 1.135 -1.4305 0.9946 -13766.377 8141.0776)">
	</pattern>
	<path class="st10" d="M487,596.9c0,0,6.1,6,42.7,7.4c0,0,4.1-0.6,7,13.3c0,0,7.1-3.4,14-12.8"/>
</g>
<g>
	<path class="st3" d="M548,544.3v52.2c0,0-2.8,1.7-6.8,1.7h-0.9c-3.9,0-6.8-1.7-6.8-1.7v-52.2"/>
	<path class="st3" d="M548,584.2c0,0-2.8,1.1-6.8,1.1h-0.9c-3.9,0-6.8-1.1-6.8-1.1"/>
	<path class="st6" d="M548,544.3v52.2c0,0-2.8,1.7-6.8,1.7h-0.9c-3.9,0-6.8-1.7-6.8-1.7v-52.2"/>
	<path class="st11" d="M548,533.1v52.2c0,0-2.8,1.7-6.8,1.7h-0.9c-3.9,0-6.8-1.7-6.8-1.7v-52.2"/>
	<path class="st6" d="M541.3,552c23.9,0,29.2-4,29.2-4v-32.7c-14.8-2.9-29.6-2.2-29.6-2.2s-14.8-0.1-29.6,2.2V548c0,0,5.3,4,29.2,4
		H541.3z"/>
	
		<pattern  id="SVGID_5_" xlink:href="#New_Pattern_Swatch_1" patternTransform="matrix(0.7892 1.135 -1.4305 0.9946 -13763.875 8139.04)">
	</pattern>
	<path class="st12" d="M541.3,552c23.9,0,29.2-4,29.2-4v-32.7c-14.8-2.9-29.6-2.2-29.6-2.2s-14.8-0.1-29.6,2.2V548c0,0,5.3,4,29.2,4
		H541.3z"/>
</g>
<g>
	<polyline class="st3" points="333.6,204.2 330.6,209.2 333.6,214.2 330.6,219.2 333.6,224.1 330.6,229.1 333.6,234.1 330.6,239.1 
		333.6,244.1 330.6,249.1 333.6,254.1 330.6,259.1 333.6,264.1 330.6,269.1 333.6,274.1 330.6,279.1 333.6,284.1 330.6,289 
		333.6,294 330.6,299 333.6,304 330.6,309 333.6,314 330.6,319 333.6,324 330.6,329 333.6,334 330.6,339 333.6,344 330.6,349 
		333.6,354 330.6,359 333.6,363.9 330.6,368.9 333.6,373.9 330.6,378.9 333.6,383.9 330.6,388.9 333.6,393.9 330.6,398.9 
		333.6,403.9 330.6,408.9 333.6,413.9 330.6,418.9 333.6,423.9 330.6,428.9 333.6,433.9 330.6,438.9 333.6,443.9 330.6,448.8 
		333.6,453.8 330.6,458.8 333.6,463.8 330.6,468.8 333.6,473.8 330.6,478.8 333.6,483.8 330.6,488.8 333.6,493.8 330.6,498.8 
		333.6,503.8 330.6,508.8 333.6,513.8 330.6,518.8 333.6,523.8 330.6,528.8 333.6,533.7 330.6,538.7 333.6,543.7 330.6,548.7 
		333.6,553.7 330.6,558.7 333.6,563.7 330.6,568.7 333.6,573.7 330.6,578.7 333.6,583.7 330.6,588.7 333.6,593.7 330.6,598.7 
		333.6,603.7 330.6,608.7 333.6,613.7 330.6,618.7 333.6,623.7 330.6,628.7 	"/>
</g>
<line class="st13" x1="332" y1="354.2" x2="100.6" y2="383.2"/>
<line class="st13" x1="331.3" y1="263.6" x2="143.3" y2="232.2"/>
<line class="st13" x1="330.6" y1="303.6" x2="217.3" y2="301.6"/>
<line class="st13" x1="334" y1="328.9" x2="102" y2="343.6"/>
<line class="st13" x1="332" y1="283.6" x2="147.3" y2="272.2"/>
<line class="st13" x1="93.3" y1="150.2" x2="293.3" y2="212.9"/>
<line class="st13" x1="331.3" y1="243.6" x2="184" y2="210.9"/>
<line class="st13" x1="94.6" y1="246.2" x2="226.6" y2="258.9"/>
<line class="st13" x1="93.3" y1="310.9" x2="252.6" y2="310.2"/>
<line class="st13" x1="95.3" y1="353.6" x2="276" y2="339.6"/>
<line class="st13" x1="94.6" y1="376.2" x2="221.2" y2="361.7"/>
<line class="st13" x1="333.3" y1="612.9" x2="138.1" y2="664.6"/>
<line class="st13" x1="94.2" y1="664.6" x2="297.3" y2="613.6"/>
<line class="st13" x1="332.6" y1="582.9" x2="123.6" y2="639.4"/>
<line class="st13" x1="92.3" y1="636.1" x2="326.6" y2="574.9"/>
<line class="st13" x1="332.6" y1="552.2" x2="192.6" y2="586.9"/>
<line class="st13" x1="332.6" y1="542.9" x2="256.6" y2="561.2"/>
<line class="st13" x1="332" y1="454.2" x2="122" y2="497.2"/>
<line class="st13" x1="93.3" y1="487.2" x2="280.6" y2="450.9"/>
<line class="st13" x1="333.3" y1="413.6" x2="196" y2="440.2"/>
<line class="st13" x1="332" y1="392.9" x2="137.3" y2="423.9"/>
<line class="st13" x1="94" y1="440.6" x2="244" y2="414.9"/>
<line class="st13" x1="331.3" y1="483.8" x2="190.6" y2="518.4"/>
<line class="st13" x1="241" y1="494.6" x2="93.7" y2="524.8"/>
<line class="st13" x1="331.6" y1="513.9" x2="112.3" y2="564.1"/>
<line class="st13" x1="94.1" y1="584" x2="279.9" y2="539.1"/>
<line class="st13" x1="93.7" y1="595.9" x2="226.7" y2="563.9"/>
<line class="st13" x1="333.5" y1="504.3" x2="220" y2="529.6"/>
<line class="st13" x1="331.9" y1="473.4" x2="262.6" y2="488.5"/>
<line class="st13" x1="332.7" y1="374.9" x2="117.3" y2="406.8"/>
<line class="st13" x1="331.9" y1="363.2" x2="141.5" y2="387.9"/>
<line class="st13" x1="329.4" y1="312.3" x2="160.7" y2="319.8"/>
<line class="st13" x1="331" y1="293.1" x2="111.4" y2="289.7"/>
<g>
	<path class="st6" d="M1148.8,692c0,0-14.8,0.6-23.7,6.5c0,0-2.4,1.9,0,4.2c0,0,6.3,5.3,28.9,5.3h1.8c22.6,0,28.9-5.3,28.9-5.3
		c2.4-2.4,0-4.2,0-4.2c-8.9-5.9-23.7-6.5-23.7-6.5l-0.6-0.5c-2.7-5-3-10.7-3-10.7s0-14.3,0-44.5c0-30.2,8.4-31.9,8.4-31.9
		c26-1.3,38.7-4.3,42.6-6.3c2.3-1.2-0.2-2.1-0.2-2.1c-16-2.9-50-3.3-50-3.3h-6.9c0,0-34,0.4-50,3.3c0,0-2.5,0.9-0.2,2.1
		c3.9,2,16.6,5,42.6,6.3c0,0,8.4,1.7,8.4,31.9c0,30.2,0,44.5,0,44.5s-0.3,5.7-3,10.7L1148.8,692z"/>
	<path class="st7" d="M1160.5,691.5c1.7,3.2,4.5,6.1,8.8,7"/>
	<path class="st7" d="M1140.5,698.4c4.3-0.8,7-3.7,8.8-7"/>
	<path class="st3" d="M1100.6,596.8c0,0,6.7,3.3,53.4,3.3h1.8c46.7,0,53.4-3.3,53.4-3.3"/>
	
		<pattern  id="SVGID_6_" xlink:href="#New_Pattern_Swatch_1" patternTransform="matrix(-0.7892 1.135 1.4305 0.9946 -852.4426 8169.3936)">
	</pattern>
	<path class="st14" d="M1100,596.9c0,0,6.7,3.3,53.4,3.3h1.8c46.7,0,53.4-3.3,53.4-3.3l-0.7,1.2c2.3-1.2-0.2-2.1-0.2-2.1
		c-16-2.9-50-3.3-50-3.3h-6.9c0,0-34,0.4-50,3.3c0,0-2.5,0.9-0.2,2.1L1100,596.9z"/>
	
		<pattern  id="SVGID_7_" xlink:href="#New_Pattern_Swatch_1" patternTransform="matrix(-0.7892 1.135 1.4305 0.9946 -852.4426 8169.3936)">
	</pattern>
	<path class="st15" d="M1157.5,680.8c0,0,1.8,19.5,17.6,17.6l6.2-1.9c0,0,17,7.9-20.4,11.3"/>
	
		<pattern  id="SVGID_8_" xlink:href="#New_Pattern_Swatch_1" patternTransform="matrix(-0.7892 1.135 1.4305 0.9946 -852.4426 8169.3936)">
	</pattern>
	<path class="st16" d="M1208.7,596.9c0,0-6.1,6-42.7,7.4c0,0-4.1-0.6-7,13.3c0,0-7.1-3.4-14-12.8"/>
</g>
<g>
	<path class="st3" d="M1147.6,544.3v52.2c0,0,2.8,1.7,6.8,1.7h0.9c3.9,0,6.8-1.7,6.8-1.7v-52.2"/>
	<path class="st3" d="M1147.6,584.2c0,0,2.8,1.1,6.8,1.1h0.9c3.9,0,6.8-1.1,6.8-1.1"/>
	<path class="st6" d="M1147.6,544.3v52.2c0,0,2.8,1.7,6.8,1.7h0.9c3.9,0,6.8-1.7,6.8-1.7v-52.2"/>
	<path class="st11" d="M1147.6,533.1v52.2c0,0,2.8,1.7,6.8,1.7h0.9c3.9,0,6.8-1.7,6.8-1.7v-52.2"/>
	<path class="st6" d="M1154.4,552c-23.9,0-29.2-4-29.2-4v-32.7c14.8-2.9,29.6-2.2,29.6-2.2s14.8-0.1,29.6,2.2V548c0,0-5.3,4-29.2,4
		H1154.4z"/>
	
		<pattern  id="SVGID_9_" xlink:href="#New_Pattern_Swatch_1" patternTransform="matrix(-0.7892 1.135 1.4305 0.9946 -854.9438 8167.356)">
	</pattern>
	<path class="st17" d="M1154.4,552c-23.9,0-29.2-4-29.2-4v-32.7c14.8-2.9,29.6-2.2,29.6-2.2s14.8-0.1,29.6,2.2V548c0,0-5.3,4-29.2,4
		H1154.4z"/>
</g>
<polygon class="st4" points="1601.2,86.1 1362.1,205.2 1362.9,630 1601.6,696 "/>
<polygon class="st3" points="1341.9,636.2 1601.7,719.4 1601.2,86.7 1341.1,198.4 "/>
<line class="st3" x1="1362.9" y1="630" x2="1601.7" y2="696"/>
<line class="st3" x1="1601.2" y1="116.1" x2="1362.2" y2="205.3"/>
<path class="st3" d="M1575.9,58.7"/>
<line class="st3" x1="1569.3" y1="62" x2="1575.9" y2="58.7"/>
<line class="st3" x1="1362.2" y1="206.3" x2="1341.1" y2="199.4"/>
<line class="st3" x1="1363.1" y1="629.1" x2="1342" y2="635.2"/>
<pattern  id="SVGID_10_" xlink:href="#New_Pattern_Swatch_1" patternTransform="matrix(-1.0191 1.4658 1.8473 1.2844 1202.4175 13192.8613)">
</pattern>
<polygon class="st18" points="1601.7,696 1362.9,630 1362.2,205.3 1601.2,116.1 1601.2,86.7 1341.1,198.4 1341.9,636.2 
	1601.7,719.4 "/>
<g>
	<polyline class="st3" points="1364.4,205.2 1361.4,210.2 1364.4,215.2 1361.4,220.2 1364.4,225.1 1361.4,230.1 1364.4,235.1 
		1361.4,240.1 1364.4,245.1 1361.4,250.1 1364.4,255.1 1361.4,260.1 1364.4,265.1 1361.4,270.1 1364.4,275.1 1361.4,280.1 
		1364.4,285.1 1361.4,290 1364.4,295 1361.4,300 1364.4,305 1361.4,310 1364.4,315 1361.4,320 1364.4,325 1361.4,330 1364.4,335 
		1361.4,340 1364.4,345 1361.4,350 1364.4,355 1361.4,360 1364.4,364.9 1361.4,369.9 1364.4,374.9 1361.4,379.9 1364.4,384.9 
		1361.4,389.9 1364.4,394.9 1361.4,399.9 1364.4,404.9 1361.4,409.9 1364.4,414.9 1361.4,419.9 1364.4,424.9 1361.4,429.9 
		1364.4,434.9 1361.4,439.9 1364.4,444.9 1361.4,449.8 1364.4,454.8 1361.4,459.8 1364.4,464.8 1361.4,469.8 1364.4,474.8 
		1361.4,479.8 1364.4,484.8 1361.4,489.8 1364.4,494.8 1361.4,499.8 1364.4,504.8 1361.4,509.8 1364.4,514.8 1361.4,519.8 
		1364.4,524.8 1361.4,529.8 1364.4,534.7 1361.4,539.7 1364.4,544.7 1361.4,549.7 1364.4,554.7 1361.4,559.7 1364.4,564.7 
		1361.4,569.7 1364.4,574.7 1361.4,579.7 1364.4,584.7 1361.4,589.7 1364.4,594.7 1361.4,599.7 1364.4,604.7 1361.4,609.7 
		1364.4,614.7 1361.4,619.7 1364.4,624.7 1361.4,629.7 	"/>
</g>
<line class="st13" x1="1363" y1="355.2" x2="1594.4" y2="384.2"/>
<line class="st13" x1="1363.7" y1="264.6" x2="1551.7" y2="233.2"/>
<line class="st13" x1="1364.4" y1="304.6" x2="1477.7" y2="302.6"/>
<line class="st13" x1="1361" y1="329.9" x2="1593" y2="344.6"/>
<line class="st13" x1="1363" y1="284.6" x2="1547.7" y2="273.2"/>
<line class="st13" x1="1601.7" y1="151.2" x2="1401.7" y2="213.9"/>
<line class="st13" x1="1363.7" y1="244.6" x2="1511" y2="211.9"/>
<line class="st13" x1="1600.4" y1="247.2" x2="1468.4" y2="259.9"/>
<line class="st13" x1="1601.7" y1="311.9" x2="1442.4" y2="311.2"/>
<line class="st13" x1="1599.7" y1="354.6" x2="1419" y2="340.6"/>
<line class="st13" x1="1600.4" y1="377.2" x2="1473.8" y2="362.7"/>
<line class="st13" x1="1361.7" y1="613.9" x2="1557" y2="665.6"/>
<line class="st13" x1="1600.8" y1="665.6" x2="1397.7" y2="614.6"/>
<line class="st13" x1="1362.4" y1="583.9" x2="1571.4" y2="640.4"/>
<line class="st13" x1="1602.7" y1="637.1" x2="1368.4" y2="575.9"/>
<line class="st13" x1="1362.4" y1="553.2" x2="1502.4" y2="587.9"/>
<line class="st13" x1="1362.4" y1="543.9" x2="1438.4" y2="562.2"/>
<line class="st13" x1="1363" y1="455.2" x2="1573" y2="498.2"/>
<line class="st13" x1="1601.7" y1="488.2" x2="1414.4" y2="451.9"/>
<line class="st13" x1="1361.7" y1="414.6" x2="1499" y2="441.2"/>
<line class="st13" x1="1363" y1="393.9" x2="1557.7" y2="424.9"/>
<line class="st13" x1="1601" y1="441.6" x2="1451" y2="415.9"/>
<line class="st13" x1="1363.7" y1="484.8" x2="1504.4" y2="519.4"/>
<line class="st13" x1="1454" y1="495.6" x2="1601.3" y2="525.8"/>
<line class="st13" x1="1363.4" y1="514.9" x2="1582.7" y2="565.1"/>
<line class="st13" x1="1600.9" y1="585" x2="1415.1" y2="540.1"/>
<line class="st13" x1="1601.3" y1="596.9" x2="1468.3" y2="564.9"/>
<line class="st13" x1="1361.5" y1="505.3" x2="1475.1" y2="530.6"/>
<line class="st13" x1="1363.1" y1="474.4" x2="1432.4" y2="489.5"/>
<line class="st13" x1="1362.3" y1="375.9" x2="1577.7" y2="407.8"/>
<line class="st13" x1="1363.1" y1="364.2" x2="1553.5" y2="388.9"/>
<line class="st13" x1="1365.6" y1="313.3" x2="1534.3" y2="320.8"/>
<line class="st13" x1="1364" y1="294.1" x2="1583.6" y2="290.7"/>
</svg>
