<?xml version="1.0" encoding="utf-8"?>
<!-- Generator: Adobe Illustrator 21.0.1, SVG Export Plug-In . SVG Version: 6.00 Build 0)  -->
<svg version="1.1" id="ff91f76c-c8ad-4bb0-b086-86684c3a0524"
	 xmlns="http://www.w3.org/2000/svg" xmlns:xlink="http://www.w3.org/1999/xlink" x="0px" y="0px" viewBox="0 0 1678 1015.6"
	 style="enable-background:new 0 0 1678 1015.6;" xml:space="preserve">
<style type="text/css">
	.st0{fill:none;}
	.st1{fill:none;stroke:#000000;stroke-width:0.25;stroke-miterlimit:10;}
	.st2{fill:#C4C4C4;stroke:#000000;stroke-miterlimit:10;}
	.st3{fill:none;stroke:#000000;stroke-miterlimit:10;}
	.st4{fill:url(#SVGID_1_);}
	.st5{fill:#FFFFFF;}
	.st6{fill:url(#SVGID_2_);}
	.st7{fill:#FFFFFF;stroke:#000000;stroke-miterlimit:10;}
	.st8{fill:none;stroke:#000000;stroke-linecap:round;stroke-miterlimit:10;}
	.st9{fill:url(#SVGID_3_);}
	.st10{fill:url(#SVGID_4_);}
	.st11{fill:url(#SVGID_5_);}
	.st12{fill:#ABABAB;stroke:#000000;stroke-width:1.0198;stroke-miterlimit:10;}
	.st13{fill:url(#SVGID_6_);}
	.st14{fill:url(#SVGID_7_);}
	.st15{fill:url(#SVGID_8_);}
	.st16{fill:url(#SVGID_9_);}
	.st17{fill:url(#SVGID_10_);}
</style>
<pattern  y="1015.6" width="1" height="3.9" patternUnits="userSpaceOnUse" id="New_Pattern_Swatch_1" viewBox="0 -3.9 1 3.9" style="overflow:visible;">
	<g>
		<rect y="-3.9" class="st0" width="1" height="3.9"/>
		<line class="st1" x1="0.5" y1="-3.9" x2="0.5" y2="0"/>
		<rect y="-3.3" class="st0" width="1" height="1.8"/>
	</g>
</pattern>
<title>living</title>
<polygon class="st2" points="90.1,315 279.2,359.2 278.4,504.9 89.7,514.9 "/>
<line class="st3" x1="360.7" y1="668.7" x2="36.6" y2="791.8"/>
<line class="st3" x1="361.4" y1="649.8" x2="59" y2="764.6"/>
<polygon class="st3" points="299.5,511 89.7,521.2 90.2,305.6 300.3,352.3 "/>
<polyline class="st3" points="90.1,315 279.2,359.2 278.4,504.9 89.7,514.9 "/>
<polyline class="st3" points="360.7,650.4 741.4,650.4 917.6,650.4 1298.3,650.4 "/>
<line class="st3" x1="358.3" y1="649.2" x2="60.3" y2="762.3"/>
<path class="st3" d="M357.7,562.9"/>
<line class="st3" x1="360.7" y1="164.9" x2="37.7" y2="1.9"/>
<line class="st3" x1="361.4" y1="183.8" x2="93.7" y2="48.9"/>
<path class="st3" d="M102.5,55.6"/>
<line class="st3" x1="109.1" y1="58.9" x2="102.5" y2="55.6"/>
<line class="st3" x1="358.3" y1="184.4" x2="109.1" y2="58.9"/>
<line class="st3" x1="279.2" y1="359.2" x2="300.3" y2="352.3"/>
<line class="st3" x1="278.4" y1="504.9" x2="299.5" y2="511"/>
<pattern  id="SVGID_1_" xlink:href="#New_Pattern_Swatch_1" patternTransform="matrix(1.0191 1.4658 -1.8473 1.2844 -15651.4893 13015.9785)">
</pattern>
<polygon class="st4" points="89.7,514.9 278.4,504.9 279.2,359.2 90.1,315 90.2,305.6 300.3,352.3 299.5,511 89.7,521.2 "/>
<path class="st5" d="M906.5,416.3"/>
<polygon class="st2" points="1581.9,102 1342.8,202.2 1343.6,626.9 1582.3,707.9 "/>
<polyline class="st3" points="1301.3,184.7 1301.3,648.8 1298.3,649.8 1298.3,668.7 878.2,668.7 780.8,668.7 360.7,668.7 
	360.7,649.8 357.7,648.8 357.7,184.7 "/>
<line class="st3" x1="1298.3" y1="668.7" x2="1622.4" y2="791.8"/>
<line class="st3" x1="1297.6" y1="649.8" x2="1600" y2="764.6"/>
<polygon class="st3" points="1322.5,633 1582.3,730.2 1581.8,83.6 1321.7,195.3 "/>
<polyline class="st3" points="1581.9,102 1342.8,202.2 1343.6,626.9 1582.3,707.9 "/>
<polyline class="st3" points="1300.6,648.8 919.9,648.8 739.1,648.8 358.4,648.8 "/>
<line class="st3" x1="1300.7" y1="649.2" x2="1598.7" y2="762.3"/>
<path class="st3" d="M1301.3,562.9"/>
<polyline class="st3" points="1301.3,184.8 1298.3,183.8 1298.3,164.9 878.2,164.9 780.8,164.9 360.7,164.9 360.7,183.8 
	357.7,184.8 "/>
<line class="st3" x1="1298.3" y1="164.9" x2="1621.3" y2="1.9"/>
<line class="st3" x1="1297.6" y1="183.8" x2="1565.3" y2="48.9"/>
<polyline class="st3" points="1298.3,183.2 1097.6,183.2 561.4,183.2 360.7,183.2 "/>
<polyline class="st3" points="1300.6,184.8 1099.9,184.8 559.1,184.8 358.4,184.8 "/>
<path class="st3" d="M1556.5,55.6"/>
<line class="st3" x1="1549.9" y1="58.9" x2="1556.5" y2="55.6"/>
<line class="st3" x1="1300.7" y1="184.4" x2="1549.9" y2="58.9"/>
<line class="st3" x1="1342.8" y1="203.2" x2="1321.7" y2="196.3"/>
<line class="st3" x1="1343.7" y1="626" x2="1322.6" y2="632.1"/>
<pattern  id="SVGID_2_" xlink:href="#New_Pattern_Swatch_1" patternTransform="matrix(-1.0191 1.4658 1.8473 1.2844 859.8813 12974.8652)">
</pattern>
<polygon class="st6" points="1582.3,707.9 1343.6,626.9 1342.8,202.2 1581.9,101 1581.8,83.6 1321.7,195.3 1322.5,633 1582.3,724.2 
	"/>
<polygon class="st5" points="91,390.2 151.8,330.3 199.2,341.5 91,449.7 "/>
<polygon class="st5" points="133.5,511.6 278.6,367.5 278.6,389 154.5,511.1 "/>
<polygon class="st5" points="278.9,415 183,508.9 195,508.9 277.9,428 "/>
<polygon class="st5" points="1344.2,514.1 1524.3,687.1 1568.8,703 1343.6,486.1 "/>
<polygon class="st5" points="1581.5,610.2 1343.6,370.5 1343.6,314.7 1581.7,553.8 "/>
<polygon class="st5" points="1581.7,495.9 1344.7,253.9 1344.7,216.4 1581.2,456.9 "/>
<polygon class="st5" points="1581.3,300.9 1439.9,162.5 1580.9,104 "/>
<line class="st0" x1="398.3" y1="1005.6" x2="739.1" y2="648.8"/>
<line class="st3" x1="757.5" y1="904.6" x2="807.6" y2="668.7"/>
<line class="st3" x1="612.1" y1="1002.9" x2="763.7" y2="669.4"/>
<line class="st3" x1="374.2" y1="999" x2="674.6" y2="668.7"/>
<line class="st3" x1="264.1" y1="1016.7" x2="636.1" y2="668.7"/>
<line class="st3" x1="174.1" y1="991.5" x2="592.8" y2="670.3"/>
<line class="st3" x1="54.1" y1="991.5" x2="551.5" y2="668.7"/>
<line class="st3" x1="53.8" y1="922.3" x2="503" y2="669"/>
<line class="st3" x1="103.6" y1="837.9" x2="462.5" y2="669"/>
<line class="st3" x1="-0.1" y1="839.7" x2="403" y2="670"/>
<line class="st3" x1="535.4" y1="936.1" x2="718.1" y2="669.3"/>
<g>
	<path class="st7" d="M530.2,689.8c0,0,14.8,0.6,23.7,6.5c0,0,2.4,1.9,0,4.2c0,0-6.3,5.3-28.9,5.3h-1.8c-22.6,0-28.9-5.3-28.9-5.3
		c-2.4-2.4,0-4.2,0-4.2c8.9-5.9,23.7-6.5,23.7-6.5l0.6-0.5c2.7-5,3-10.7,3-10.7s0-14.3,0-44.5s-8.4-31.9-8.4-31.9
		c-26-1.3-38.7-4.3-42.6-6.3c-2.3-1.2,0.2-2.1,0.2-2.1c16-2.9,50-3.3,50-3.3h6.9c0,0,34,0.4,50,3.3c0,0,2.5,0.9,0.2,2.1
		c-3.9,2-16.6,5-42.6,6.3c0,0-8.4,1.7-8.4,31.9s0,44.5,0,44.5s0.3,5.7,3,10.7L530.2,689.8z"/>
	<path class="st8" d="M518.5,689.3c-1.7,3.2-4.5,6.1-8.8,7"/>
	<path class="st8" d="M538.5,696.3c-4.3-0.8-7-3.7-8.8-7"/>
	<path class="st3" d="M578.4,594.7c0,0-6.7,3.3-53.4,3.3h-1.8c-46.7,0-53.4-3.3-53.4-3.3"/>
	
		<pattern  id="SVGID_3_" xlink:href="#New_Pattern_Swatch_1" patternTransform="matrix(0.7892 1.135 -1.4305 0.9946 -13836.8604 8172.5)">
	</pattern>
	<path class="st9" d="M579,594.8c0,0-6.7,3.3-53.4,3.3h-1.8c-46.7,0-53.4-3.3-53.4-3.3l0.7,1.2c-2.3-1.2,0.2-2.1,0.2-2.1
		c16-2.9,50-3.3,50-3.3h6.9c0,0,34,0.4,50,3.3c0,0,2.5,0.9,0.2,2.1L579,594.8z"/>
	
		<pattern  id="SVGID_4_" xlink:href="#New_Pattern_Swatch_1" patternTransform="matrix(0.7892 1.135 -1.4305 0.9946 -13836.8604 8172.5)">
	</pattern>
	<path class="st10" d="M521.5,678.7c0,0-1.8,19.5-17.6,17.6l-6.2-1.9c0,0-17,7.9,20.4,11.3"/>
	
		<pattern  id="SVGID_5_" xlink:href="#New_Pattern_Swatch_1" patternTransform="matrix(0.7892 1.135 -1.4305 0.9946 -13836.8604 8172.5)">
	</pattern>
	<path class="st11" d="M470.3,594.8c0,0,6.1,6,42.7,7.4c0,0,4.1-0.6,7,13.3c0,0,7.1-3.4,14-12.8"/>
</g>
<g>
	<path class="st3" d="M531.4,542.2v52.2c0,0-2.8,1.7-6.8,1.7h-0.9c-3.9,0-6.8-1.7-6.8-1.7v-52.2"/>
	<path class="st3" d="M531.4,582.1c0,0-2.8,1.1-6.8,1.1h-0.9c-3.9,0-6.8-1.1-6.8-1.1"/>
	<path class="st7" d="M531.4,542.2v52.2c0,0-2.8,1.7-6.8,1.7h-0.9c-3.9,0-6.8-1.7-6.8-1.7v-52.2"/>
	<path class="st12" d="M531.4,531v52.2c0,0-2.8,1.7-6.8,1.7h-0.9c-3.9,0-6.8-1.7-6.8-1.7V531"/>
	<path class="st7" d="M524.6,549.9c23.9,0,29.2-4,29.2-4v-32.7c-14.8-2.9-29.6-2.2-29.6-2.2s-14.8-0.1-29.6,2.2v32.7
		c0,0,5.3,4,29.2,4H524.6z"/>
	
		<pattern  id="SVGID_6_" xlink:href="#New_Pattern_Swatch_1" patternTransform="matrix(0.7892 1.135 -1.4305 0.9946 -13834.3594 8170.4624)">
	</pattern>
	<path class="st13" d="M524.6,549.9c23.9,0,29.2-4,29.2-4v-32.7c-14.8-2.9-29.6-2.2-29.6-2.2s-14.8-0.1-29.6,2.2v32.7
		c0,0,5.3,4,29.2,4H524.6z"/>
</g>
<line class="st0" x1="1260.7" y1="1005.6" x2="919.9" y2="648.8"/>
<line class="st3" x1="912.8" y1="973.4" x2="851.4" y2="668.7"/>
<line class="st3" x1="1048.5" y1="997" x2="895.3" y2="669.4"/>
<line class="st3" x1="1260.8" y1="969.5" x2="984.4" y2="668.7"/>
<line class="st3" x1="1301.3" y1="914.4" x2="1022.9" y2="668.7"/>
<line class="st3" x1="1406.1" y1="931" x2="1066.2" y2="670.3"/>
<line class="st3" x1="1510.6" y1="930.3" x2="1107.5" y2="668.7"/>
<line class="st3" x1="1663.8" y1="953.8" x2="1156" y2="669"/>
<line class="st3" x1="1555.4" y1="837.9" x2="1196.5" y2="669"/>
<line class="st3" x1="1677.5" y1="843.7" x2="1256" y2="670"/>
<line class="st3" x1="1134.2" y1="950.4" x2="940.9" y2="669.3"/>
<g>
	<path class="st7" d="M1128.8,689.8c0,0-14.8,0.6-23.7,6.5c0,0-2.4,1.9,0,4.2c0,0,6.3,5.3,28.9,5.3h1.8c22.6,0,28.9-5.3,28.9-5.3
		c2.4-2.4,0-4.2,0-4.2c-8.9-5.9-23.7-6.5-23.7-6.5l-0.6-0.5c-2.7-5-3-10.7-3-10.7s0-14.3,0-44.5s8.4-31.9,8.4-31.9
		c26-1.3,38.7-4.3,42.6-6.3c2.3-1.2-0.2-2.1-0.2-2.1c-16-2.9-50-3.3-50-3.3h-6.9c0,0-34,0.4-50,3.3c0,0-2.5,0.9-0.2,2.1
		c3.9,2,16.6,5,42.6,6.3c0,0,8.4,1.7,8.4,31.9s0,44.5,0,44.5s-0.3,5.7-3,10.7L1128.8,689.8z"/>
	<path class="st8" d="M1140.5,689.3c1.7,3.2,4.5,6.1,8.8,7"/>
	<path class="st8" d="M1120.5,696.3c4.3-0.8,7-3.7,8.8-7"/>
	<path class="st3" d="M1080.6,594.7c0,0,6.7,3.3,53.4,3.3h1.8c46.7,0,53.4-3.3,53.4-3.3"/>
	
		<pattern  id="SVGID_7_" xlink:href="#New_Pattern_Swatch_1" patternTransform="matrix(-0.7892 1.135 1.4305 0.9946 -903.1865 8156.0928)">
	</pattern>
	<path class="st14" d="M1080,594.8c0,0,6.7,3.3,53.4,3.3h1.8c46.7,0,53.4-3.3,53.4-3.3l-0.7,1.2c2.3-1.2-0.2-2.1-0.2-2.1
		c-16-2.9-50-3.3-50-3.3h-6.9c0,0-34,0.4-50,3.3c0,0-2.5,0.9-0.2,2.1L1080,594.8z"/>
	
		<pattern  id="SVGID_8_" xlink:href="#New_Pattern_Swatch_1" patternTransform="matrix(-0.7892 1.135 1.4305 0.9946 -903.1865 8156.0928)">
	</pattern>
	<path class="st15" d="M1137.5,678.7c0,0,1.8,19.5,17.6,17.6l6.2-1.9c0,0,17,7.9-20.4,11.3"/>
	
		<pattern  id="SVGID_9_" xlink:href="#New_Pattern_Swatch_1" patternTransform="matrix(-0.7892 1.135 1.4305 0.9946 -903.1865 8156.0928)">
	</pattern>
	<path class="st16" d="M1188.7,594.8c0,0-6.1,6-42.7,7.4c0,0-4.1-0.6-7,13.3c0,0-7.1-3.4-14-12.8"/>
</g>
<g>
	<path class="st3" d="M1127.6,542.2v52.2c0,0,2.8,1.7,6.8,1.7h0.9c3.9,0,6.8-1.7,6.8-1.7v-52.2"/>
	<path class="st3" d="M1127.6,582.1c0,0,2.8,1.1,6.8,1.1h0.9c3.9,0,6.8-1.1,6.8-1.1"/>
	<path class="st7" d="M1127.6,542.2v52.2c0,0,2.8,1.7,6.8,1.7h0.9c3.9,0,6.8-1.7,6.8-1.7v-52.2"/>
	<path class="st12" d="M1127.6,531v52.2c0,0,2.8,1.7,6.8,1.7h0.9c3.9,0,6.8-1.7,6.8-1.7V531"/>
	<path class="st7" d="M1134.4,549.9c-23.9,0-29.2-4-29.2-4v-32.7c14.8-2.9,29.6-2.2,29.6-2.2s14.8-0.1,29.6,2.2v32.7
		c0,0-5.3,4-29.2,4H1134.4z"/>
	
		<pattern  id="SVGID_10_" xlink:href="#New_Pattern_Swatch_1" patternTransform="matrix(-0.7892 1.135 1.4305 0.9946 -905.6877 8154.0552)">
	</pattern>
	<path class="st17" d="M1134.4,549.9c-23.9,0-29.2-4-29.2-4v-32.7c14.8-2.9,29.6-2.2,29.6-2.2s14.8-0.1,29.6,2.2v32.7
		c0,0-5.3,4-29.2,4H1134.4z"/>
</g>
</svg>
