<svg id="fcd9c86a-96cb-460e-b58a-5476c9ba74a2" data-name="Layer 1" xmlns="http://www.w3.org/2000/svg" xmlns:xlink="http://www.w3.org/1999/xlink" viewBox="0 0 645.53776 330.67111">
    <defs>
        <style>
            .\31 0402740-6931-4bab-821e-c720a197e51e,
            .\35 24b43bf-6632-41b7-a7f2-8836edab258c,
            .e7605f0c-06c0-466b-8df7-22087a1e5563 {
                fill: none;
            }
            
            .\35 24b43bf-6632-41b7-a7f2-8836edab258c,
            .bed1-fill,
            .b777381f-ae37-4a46-89ba-5415a4711dbd,
            .e7605f0c-06c0-466b-8df7-22087a1e5563 {
                stroke: #000;
                stroke-miterlimit: 10;
            }
            
            .\35 24b43bf-6632-41b7-a7f2-8836edab258c {
                stroke-width: 0.25px;
            }
            
            .b777381f-ae37-4a46-89ba-5415a4711dbd {
                fill: #c4c4c4;
                stroke-width: 0.76px;
            }
            
            .bed1-fill {
                fill: #fff;
            }
            
            .ca20e8e3-214b-4122-a67e-261d8f9b7d9f {
                fill: url(#775bb854-d8f4-4513-a3f2-c20afceaa1fe);
            }
            
            .\32 00c823b-319f-4d3c-8e93-5be51e77ba40 {
                fill: url(#07c6ad7e-8dcd-41f1-8be0-ac7bea936597);
            }

        </style>
        <pattern id="775bb854-d8f4-4513-a3f2-c20afceaa1fe" data-name="SVGID 1 " width="1" height="3.9" patternTransform="matrix(1.0674, 1.5352, 1.9348, -1.3453, -12792.84765, -11918.85523)" patternUnits="userSpaceOnUse" viewBox="0 0 1 3.9">
            <rect class="10402740-6931-4bab-821e-c720a197e51e" width="1" height="3.9" />
            <rect class="10402740-6931-4bab-821e-c720a197e51e" width="1" height="3.9" />
            <line class="524b43bf-6632-41b7-a7f2-8836edab258c" x1="0.5" y1="3.9" x2="0.5" />
            <rect class="10402740-6931-4bab-821e-c720a197e51e" y="1.5" width="1" height="1.8" />
        </pattern>
        <pattern id="07c6ad7e-8dcd-41f1-8be0-ac7bea936597" data-name="SVGID 6 " width="1" height="3.9" patternTransform="matrix(-1.0674, 1.5352, -1.9348, -1.3453, -1164.0378, -12398.96548)" patternUnits="userSpaceOnUse" viewBox="0 0 1 3.9">
            <rect class="10402740-6931-4bab-821e-c720a197e51e" width="1" height="3.9" />
            <rect class="10402740-6931-4bab-821e-c720a197e51e" width="1" height="3.9" />
            <line class="524b43bf-6632-41b7-a7f2-8836edab258c" x1="0.5" y1="3.9" x2="0.5" />
            <rect class="10402740-6931-4bab-821e-c720a197e51e" y="1.5" width="1" height="1.8" />
        </pattern>
    </defs>
    <title>bed1</title>
    <path class="b777381f-ae37-4a46-89ba-5415a4711dbd" d="M327.5,243.3H579.2l3.6,97.2c3.6,1.6,8.3,0,8.3,0l5.2-97.2h19.8l23.9-4.2c15.5-4.1,0-12,0-12V209.4c0-9.4-3.6-9.4-3.6-9.4h-8.8s5.5-26.4,3-47.7c-.6-5.3-4.8-9.6-9.2-13.1-22.4-17.7-80.1-34.3-80.1-34.3l.5-7.8c10.4,1.6,19.8-2.6,19.8-2.6-1-6.2-20.3-17.7-20.3-17.7l-3.1-65.5H110.8l-3.1,65.5S88.5,88.2,87.4,94.5c0,0,9.4,4.2,19.8,2.6l.5,7.8S50,121.5,27.6,139.2c-4.5,3.5-8.6,7.8-9.2,13.1-2.5,21.3,3,47.7,3,47.7H12.6S9,200,9,209.4v17.7s-15.5,7.9,0,12l23.9,4.2H52.7l5.2,97.2s4.7,1.6,8.3,0l3.6-97.2H327.5Z" transform="translate(-1.73112 -10.92)" />
    <path class="bed1-fill" d="M21.9,200s-5.5-26.4-3-47.7c.6-5.3,4.8-9.6,9.2-13.1,22.4-17.7,80.1-34.3,80.1-34.3l-.5-7.8A40.19354,40.19354,0,0,1,88,94.5c1-6.2,20.3-17.7,20.3-17.7s51.5-25.5,127.4-17.2,73.6,5.6,89.3,22.3c15.7-16.7,13.4-14,89.3-22.3S541.7,76.8,541.7,76.8,560.9,88.2,562,94.5c0,0-9.4,4.2-19.8,2.6l-.5,7.8s57.7,16.6,80.1,34.3c4.5,3.5,8.6,7.8,9.2,13.1,2.5,21.3-3,47.7-3,47.7H21.9Z" transform="translate(-1.73112 -10.92)" />
    <path class="b777381f-ae37-4a46-89ba-5415a4711dbd" d="M116.7,243.3V268s4.2,1.8,7.2,0l1.2-24.7" transform="translate(-1.73112 -10.92)" />
    <path class="b777381f-ae37-4a46-89ba-5415a4711dbd" d="M532.3,243.3V268s-4.2,1.8-7.2,0l-1.2-24.7" transform="translate(-1.73112 -10.92)" />
    <path class="b777381f-ae37-4a46-89ba-5415a4711dbd" d="M331,243.3l-3.5,75.4a2.71822,2.71822,0,0,1-2.5,1.8h-1a2.71822,2.71822,0,0,1-2.5-1.8L318,243.3" transform="translate(-1.73112 -10.92)" />
    <path class="e7605f0c-06c0-466b-8df7-22087a1e5563" d="M107.7,76.9s51.5-25.5,127.4-17.2,73.6,5.6,89.3,22.3" transform="translate(-1.73112 -10.92)" />
    <path class="e7605f0c-06c0-466b-8df7-22087a1e5563" d="M107.2,97.2s9.4,5.2,14.6,6.2,64.5,7.3,138.8,6.8c0,0,31.7,1.6,39.5,0s23.3-9.9,23.8-13" transform="translate(-1.73112 -10.92)" />
    <polyline class="e7605f0c-06c0-466b-8df7-22087a1e5563" points="625.769 189.28 331.469 189.28 313.969 189.28 19.669 189.28" />
    <path class="e7605f0c-06c0-466b-8df7-22087a1e5563" d="M541.2,76.9S489.7,51.4,413.8,59.7,340.2,65.3,324.5,82" transform="translate(-1.73112 -10.92)" />
    <path class="e7605f0c-06c0-466b-8df7-22087a1e5563" d="M541.7,97.2s-9.4,5.2-14.6,6.2-64.5,7.3-138.8,6.8c0,0-31.7,1.6-39.5,0s-23.3-9.9-23.8-13" transform="translate(-1.73112 -10.92)" />
    <polyline class="e7605f0c-06c0-466b-8df7-22087a1e5563" points="638.269 216.28 413.069 216.28 232.369 216.28 7.169 216.28" />
    <path class="ca20e8e3-214b-4122-a67e-261d8f9b7d9f" d="M298.9,110.4S319.6,105,325,95.6c0,0,10.2,12.3,18.7,14.8S299.4,112.7,298.9,110.4Z" transform="translate(-1.73112 -10.92)" />
    <path class="ca20e8e3-214b-4122-a67e-261d8f9b7d9f" d="M78.2,114.7s17.1-6.5,30.6-9.7c1.1-.3-2.4-7.3-1.4-7.5,4-.8,11.9,5.6,14.3,5.9,10.6,1.3,59.2,5.3,83.9,6C205.6,109.4,91.3,109.7,78.2,114.7Z" transform="translate(-1.73112 -10.92)" />
    <path class="ca20e8e3-214b-4122-a67e-261d8f9b7d9f" d="M33.4,135.3H353.8s-314.3,15.4-336,26.4A29.17274,29.17274,0,0,1,33.4,135.3Z" transform="translate(-1.73112 -10.92)" />
    <path class="ca20e8e3-214b-4122-a67e-261d8f9b7d9f" d="M87.4,94.6,95,85.7s55,21.9,218.1,14.5c0,0-9,10.7-18.5,10.7s-165.9-5.1-172.8-7.5-10-5.1-10-5.1" transform="translate(-1.73112 -10.92)" />
    <path class="ca20e8e3-214b-4122-a67e-261d8f9b7d9f" d="M323.9,93.9s-10.4-8.2,0-10,15.5-7,15.5-7S333.7,89.6,323.9,93.9Z" transform="translate(-1.73112 -10.92)" />
    <line class="e7605f0c-06c0-466b-8df7-22087a1e5563" x1="50.86887" y1="232.38" x2="71.96887" y2="232.38" />
    <line class="e7605f0c-06c0-466b-8df7-22087a1e5563" x1="573.26888" y1="232.38" x2="596.96889" y2="232.38" />
    <path class="200c823b-319f-4d3c-8e93-5be51e77ba40" d="M476.6,109.3s62.4-5,67.4-3.4c5,1.5-5.8-8.6-1.3-9.7a126.12953,126.12953,0,0,1-15.6,7.3c-6.9,2.4-163.4,7.5-172.8,7.5-9.5,0-18.5-10.7-18.5-10.7,163.1,7.4,218.1-14.5,218.1-14.5l7.6,8.9" transform="translate(-1.73112 -10.92)" />
</svg>
