<svg id="9491ad1b-4305-4c19-982f-c8f9a45e18a9" data-name="Layer 1" xmlns="http://www.w3.org/2000/svg" xmlns:xlink="http://www.w3.org/1999/xlink" viewBox="0 0 622.73875 229.81433">
    <defs>
        <style>
            .\32 7017688-303b-4e7d-b67e-de6aeeb5a765,
            .\37 a67c245-5abe-43f0-98db-2ce52053bcb7,
            .a1f0c718-b04a-4803-819c-05e88b525fab {
                fill: none;
            }

            .\32 7017688-303b-4e7d-b67e-de6aeeb5a765,
            .\37 a67c245-5abe-43f0-98db-2ce52053bcb7,
            .couch2-fill,
            .f8f46e0c-f336-4b4d-941c-91699069e5fa {
                stroke: #000;
                stroke-miterlimit: 10;
            }

            .\37 a67c245-5abe-43f0-98db-2ce52053bcb7 {
                stroke-width: 0.25px;
            }

            .f8f46e0c-f336-4b4d-941c-91699069e5fa {
                fill: #ababab;
            }

            .couch2-fill {
                fill: #8c2828;
            }

            .\33 bb49afe-351b-4be5-9b24-266bd6a02787 {
                fill: url(#b82663be-156a-4a40-ae1e-86eecad41181);
            }

            .\36 54a518f-16e0-49b7-99fa-c634f7e6275b {
                fill: url(#9c346fde-c3a9-4f0b-b0a1-1566b53f3725);
            }

        </style>
        <pattern id="b82663be-156a-4a40-ae1e-86eecad41181" data-name="New Pattern Swatch 1" width="1.04595" height="3.89383" patternTransform="matrix(1.01914, 1.46577, -1.84735, 1.28445, 13.89738, -9.00644)" patternUnits="userSpaceOnUse" viewBox="0 0 1.046 3.894">
            <rect class="a1f0c718-b04a-4803-819c-05e88b525fab" width="1.04595" height="3.89383" />
            <line class="7a67c245-5abe-43f0-98db-2ce52053bcb7" x1="0.5075" x2="0.5075" y2="3.89383" />
            <rect class="a1f0c718-b04a-4803-819c-05e88b525fab" y="0.63947" width="1.04595" height="1.80136" />
        </pattern>
        <pattern id="9c346fde-c3a9-4f0b-b0a1-1566b53f3725" data-name="New Pattern Swatch 1" width="1.04595" height="3.89383" patternTransform="matrix(-1.01914, 1.46577, 1.84735, 1.28445, -6.81906, -11.70581)" patternUnits="userSpaceOnUse" viewBox="0 0 1.046 3.894">
            <rect class="a1f0c718-b04a-4803-819c-05e88b525fab" width="1.04595" height="3.89383" />
            <line class="7a67c245-5abe-43f0-98db-2ce52053bcb7" x1="0.5075" x2="0.5075" y2="3.89383" />
            <rect class="a1f0c718-b04a-4803-819c-05e88b525fab" y="0.63947" width="1.04595" height="1.80136" />
        </pattern>
    </defs>
    <title>couch2</title>
    <path class="f8f46e0c-f336-4b4d-941c-91699069e5fa" d="M932.45791,574.82482H348.06863l1.028-11.65879h583.3613" transform="translate(-328.8939 -396.59284)" />
    <path class="couch2-fill" d="M347.61626,574.96007c-16.32542,4.737-18.22237-10.43855-18.22237-10.43855V501.41379c0-17.38682,8.37143-26.40222,8.37143-26.40222s28.978-29.622,37.34948-40.56926,16.09891-5.15165,16.09891-5.15165l-.644-16.09891c-.644-16.09891,3.21978-13.04608,3.21978-13.04608,11.59122,3.69679,36.70552,3.05283,36.70552,3.05283,39.28134-4.19764,155.19351-2.24192,173.86825-.31005s30.266-5.79561,30.266-5.79561,1.28791,0-3.21978,19.96265a69.0221,69.0221,0,0,0-1.35735,10.23517h20.42148a68.92547,68.92547,0,0,0-1.35656-10.23517c-4.5077-19.96265-3.21978-19.96265-3.21978-19.96265s11.59122,7.72748,30.266,5.79561,134.5869-3.88759,173.86825.31005c0,0,25.1143.644,36.70552-3.05283,0,0,3.86374-3.05283,3.21978,13.04608l-.644,16.09891s7.72748-5.79561,16.09891,5.15165,37.34948,40.56926,37.34948,40.56926,8.37143,9.01539,8.37143,26.40222v63.10773s-1.93187,15.455-18.67474,10.3033l-1.00462-11.394-.441-.26483H349.0966" transform="translate(-328.8939 -396.59284)" />
    <polyline class="f8f46e0c-f336-4b4d-941c-91699069e5fa" points="121.619 178.232 109.589 197.86 110.181 195.679 101.06 229.314 93.373 229.314 104.453 178.232" />
    <polyline class="f8f46e0c-f336-4b4d-941c-91699069e5fa" points="501.119 178.232 513.149 197.86 513.15 197.863 521.678 229.314 529.366 229.314 518.286 178.232" />
    <path class="27017688-303b-4e7d-b67e-de6aeeb5a765" d="M590.46593,504.6911c-10.3033-27.04617-2.84549-57.36966-2.84549-57.36966,9.65935-20.60661-8.37143-10.94726-8.37143-10.94726-82.42643,10.3033-134.5869-3.21978-134.5869-3.21978s-9.65935-4.5077-4.5077,15.455-3.86374,44.433-7.08352,52.80443" transform="translate(-328.8939 -396.59284)" />
    <path class="27017688-303b-4e7d-b67e-de6aeeb5a765" d="M391.21372,429.29066s3.48939,42.99448-5.11272,76.84628" transform="translate(-328.8939 -396.59284)" />
    <path class="27017688-303b-4e7d-b67e-de6aeeb5a765" d="M387.101,427.29066l-41.70848,44.86775s-7.23524,6.5075-6.783,29.25538,2.6123,67.70856,1.75835,74.39526" transform="translate(-328.8939 -396.59284)" />
    <line class="27017688-303b-4e7d-b67e-de6aeeb5a765" x1="110.18083" y1="195.67879" x2="114.91159" y2="178.23199" />
    <line class="27017688-303b-4e7d-b67e-de6aeeb5a765" x1="20.20271" y1="166.5732" x2="19.17474" y2="178.23199" />
    <path class="3bb49afe-351b-4be5-9b24-266bd6a02787" d="M438.65687,439.74974s-22.74-16.64632-18.8374,7.83392,4.00482,52.58386-2.12872,53.96619,15.41479-.39028,23.133-.74922c0,0,13.76474-13.48093,7.02381-58.89354C447.84757,441.90709,442.23846,423.401,438.65687,439.74974Z" transform="translate(-328.8939 -396.59284)" />
    <path class="3bb49afe-351b-4be5-9b24-266bd6a02787" d="M583.37584,502.06954s-9.56743-51.17235,2.4894-67.90752,10.2829,5.26157,6.38025,20.16258,3.0371,44.02062,7.9047,51.81234" transform="translate(-328.8939 -396.59284)" />
    <path class="3bb49afe-351b-4be5-9b24-266bd6a02787" d="M391.66838,437.62743s-39.99343,25.51086-40.32263,51.4662l-.3292,25.95535s28.16794-7.87838,35.08443-8.912C386.101,506.13694,393.5653,490.86756,391.66838,437.62743Z" transform="translate(-328.8939 -396.59284)" />
    <path class="3bb49afe-351b-4be5-9b24-266bd6a02787" d="M351.01656,564.66307l-2.94793,10.16176s256.94916-6.464,269.01189-5.82939,154.00162-4.33236,154.00162-4.33236" transform="translate(-328.8939 -396.59284)" />
    <path class="27017688-303b-4e7d-b67e-de6aeeb5a765" d="M690.06061,504.6911c10.3033-27.04617,2.84549-57.36966,2.84549-57.36966-9.65935-20.60661,8.37143-10.94726,8.37143-10.94726,82.42643,10.3033,134.5869-3.21978,134.5869-3.21978s9.65935-4.5077,4.5077,15.455,3.86374,44.433,7.08352,52.80443" transform="translate(-328.8939 -396.59284)" />
    <path class="27017688-303b-4e7d-b67e-de6aeeb5a765" d="M932.45791,574.82482H348.06863" transform="translate(-328.8939 -396.59284)" />
    <path class="27017688-303b-4e7d-b67e-de6aeeb5a765" d="M349.0966,563.166c-5.74166-6.13765-.384-46.94125-.384-46.94125s35.41761-23.18243,216.36937-14.811c0,0,20.01332,2.1148,47.25639,6.68717q1.172.19671,2.36157.39949c5.67369.96732,11.63641,2.03855,17.77769,3.21665,5.83067,1.11852,5.322-6.43956,5.322-6.43956-4.678-16.54122-9.33434-54.79684-7.74743-77.98687" transform="translate(-328.8939 -396.59284)" />
    <path class="27017688-303b-4e7d-b67e-de6aeeb5a765" d="M889.31282,429.29066s-3.48939,42.99448,5.11272,76.84628" transform="translate(-328.8939 -396.59284)" />
    <path class="27017688-303b-4e7d-b67e-de6aeeb5a765" d="M893.42554,427.29066,935.134,472.15841s7.23524,6.5075,6.783,29.25538-2.6123,67.70856-1.75835,74.39526" transform="translate(-328.8939 -396.59284)" />
    <line class="27017688-303b-4e7d-b67e-de6aeeb5a765" x1="513.15019" y1="197.86304" x2="507.82716" y2="178.23199" />
    <path class="27017688-303b-4e7d-b67e-de6aeeb5a765" d="M931.42994,563.166c5.74166-6.13765.384-46.94125.384-46.94125s-35.41761-23.18243-216.36937-14.811c0,0-30.47035,3.21978-67.39565,10.3033-5.83067,1.11852-5.322-6.43956-5.322-6.43956,4.678-16.54122,9.33434-54.79684,7.74743-77.98687" transform="translate(-328.8939 -396.59284)" />
    <path class="654a518f-16e0-49b7-99fa-c634f7e6275b" d="M841.86967,439.74974s22.74-16.64632,18.8374,7.83392-4.00482,52.58386,2.12872,53.96619-15.41479-.39028-23.133-.74922c0,0-13.76474-13.48093-7.02381-58.89354C832.679,441.90709,838.28808,423.401,841.86967,439.74974Z" transform="translate(-328.8939 -396.59284)" />
    <path class="654a518f-16e0-49b7-99fa-c634f7e6275b" d="M697.1507,502.06954s9.56743-51.17235-2.4894-67.90752-10.2829,5.26157-6.38025,20.16258-3.0371,44.02062-7.9047,51.81234" transform="translate(-328.8939 -396.59284)" />
    <path class="654a518f-16e0-49b7-99fa-c634f7e6275b" d="M888.85815,437.62743s39.99343,25.51086,40.32263,51.4662L929.51,515.049s-28.16794-7.87838-35.08443-8.912C894.42554,506.13694,886.96124,490.86756,888.85815,437.62743Z" transform="translate(-328.8939 -396.59284)" />
    <line class="27017688-303b-4e7d-b67e-de6aeeb5a765" x1="310.91502" y1="30.69782" x2="310.91502" y2="165.54489" />
    <path class="3bb49afe-351b-4be5-9b24-266bd6a02787" d="M640.71763,562.13773c1.61491-16.36946-3.18226-32.593,1.61685-41.72411S661.529,509.2437,661.529,509.2437c-21.34084,8.48132-18.802-3.96617-18.802-3.96617,7.11483-11.08894,7.74664-77.98686,7.74664-77.98686H630.05292s.63181,66.89792,7.74664,77.98686c0,0,2.53885,12.44749-18.802,3.96617,0,0,13.39538,2.03878,18.19449,11.16991s1.00194,25.35465,2.61685,41.72411" transform="translate(-328.8939 -396.59284)" />
    <path class="27017688-303b-4e7d-b67e-de6aeeb5a765" d="M639.69444,533.02564" transform="translate(-328.8939 -396.59284)" />
    <path class="27017688-303b-4e7d-b67e-de6aeeb5a765" d="M639.69444,533.02564" transform="translate(-328.8939 -396.59284)" />
    <path class="27017688-303b-4e7d-b67e-de6aeeb5a765" d="M610.76242,507.83815s15.08048,1.00035,23.62923,9.5135c4.65475,4.63537,5.26243,12.90514,5.30279,21.2149" transform="translate(-328.8939 -396.59284)" />
    <path class="27017688-303b-4e7d-b67e-de6aeeb5a765" d="M669.76412,507.83815s-15.08048,1.00035-23.62923,9.5135c-4.65475,4.63537-6.26243,12.90514-6.30279,21.2149" transform="translate(-328.8939 -396.59284)" />
</svg>
