<svg id="bd8abd60-af38-4f64-84cd-fdb821091fc0" data-name="Layer 1" xmlns="http://www.w3.org/2000/svg" xmlns:xlink="http://www.w3.org/1999/xlink" viewBox="0 0 617.7601 347.40443"><defs><style>.\30 fef35f2-32ba-47d1-bcc0-f37f8e5362ff,.\37 1e37e5a-c26f-4c79-809f-3026bbe58827,.\37 40ab8e6-8c93-4c1b-94fb-273619644706,.b3f27eaf-47f8-449c-8903-259611f52a7a{fill:none;}.\34 f9de87f-932e-4c5d-b212-fd142a8bd7fb,.\37 1e37e5a-c26f-4c79-809f-3026bbe58827,.\37 40ab8e6-8c93-4c1b-94fb-273619644706,.b3f27eaf-47f8-449c-8903-259611f52a7a,.bed2-fill{stroke:#000;stroke-miterlimit:10;}.\37 1e37e5a-c26f-4c79-809f-3026bbe58827{stroke-width:0.25px;}.\34 f9de87f-932e-4c5d-b212-fd142a8bd7fb{fill:#c4c4c4;stroke-width:0.76px;}.bed2-fill{fill:#fff;}.b3f27eaf-47f8-449c-8903-259611f52a7a,.bed2-fill{stroke-width:0.8632px;}.\37 7547040-8112-4c8f-b0ae-e138dd4f98d2{fill:url(#a4bb6e90-5d2e-4974-ab20-7cbdae2424ed);}.fe8c6e1c-05af-4cbe-a7c5-c1b52d78c6ac{fill:url(#950ce302-9f0c-477b-a838-b0c87523f230);}.\37 40ab8e6-8c93-4c1b-94fb-273619644706{stroke-width:0.7654px;}.\30 b98eaba-40cd-4dfb-8261-aaa1ec2f8a90{fill:url(#d241d2bd-bc9b-4c39-9492-4f3cd45b275f);}.e93316d2-45b4-4686-bcb4-67806967f32d{fill:url(#e5594b8a-5e0e-4567-b62d-f07a5b2aef82);}</style><pattern id="a4bb6e90-5d2e-4974-ab20-7cbdae2424ed" data-name="SVGID 1 " width="1" height="3.9" patternTransform="matrix(1.2523, 1.8079, 2.2699, -1.5842, -14394.9605, -15871.97247)" patternUnits="userSpaceOnUse" viewBox="0 0 1 3.9"><rect class="0fef35f2-32ba-47d1-bcc0-f37f8e5362ff" width="1" height="3.9"/><rect class="0fef35f2-32ba-47d1-bcc0-f37f8e5362ff" width="1" height="3.9"/><line class="71e37e5a-c26f-4c79-809f-3026bbe58827" x1="0.5" y1="3.9" x2="0.5"/><rect class="0fef35f2-32ba-47d1-bcc0-f37f8e5362ff" y="1.5" width="1" height="1.8"/></pattern><pattern id="950ce302-9f0c-477b-a838-b0c87523f230" data-name="SVGID 2 " width="1" height="3.9" patternTransform="matrix(1.2523, 1.8079, 2.2699, -1.5842, -14394.9605, -15894.17364)" patternUnits="userSpaceOnUse" viewBox="0 0 1 3.9"><rect class="0fef35f2-32ba-47d1-bcc0-f37f8e5362ff" width="1" height="3.9"/><rect class="0fef35f2-32ba-47d1-bcc0-f37f8e5362ff" width="1" height="3.9"/><line class="71e37e5a-c26f-4c79-809f-3026bbe58827" x1="0.5" y1="3.9" x2="0.5"/><rect class="0fef35f2-32ba-47d1-bcc0-f37f8e5362ff" y="1.5" width="1" height="1.8"/></pattern><pattern id="d241d2bd-bc9b-4c39-9492-4f3cd45b275f" data-name="SVGID 4 " width="1" height="3.9" patternTransform="matrix(-1.2523, 1.8079, -2.2699, -1.5842, -714.61294, -15823.35489)" patternUnits="userSpaceOnUse" viewBox="0 0 1 3.9"><rect class="0fef35f2-32ba-47d1-bcc0-f37f8e5362ff" width="1" height="3.9"/><rect class="0fef35f2-32ba-47d1-bcc0-f37f8e5362ff" width="1" height="3.9"/><line class="71e37e5a-c26f-4c79-809f-3026bbe58827" x1="0.5" y1="3.9" x2="0.5"/><rect class="0fef35f2-32ba-47d1-bcc0-f37f8e5362ff" y="1.5" width="1" height="1.8"/></pattern><pattern id="e5594b8a-5e0e-4567-b62d-f07a5b2aef82" data-name="SVGID 5 " width="1" height="3.9" patternTransform="matrix(-1.2523, 1.8079, -2.2699, -1.5842, -714.61294, -15845.55606)" patternUnits="userSpaceOnUse" viewBox="0 0 1 3.9"><rect class="0fef35f2-32ba-47d1-bcc0-f37f8e5362ff" width="1" height="3.9"/><rect class="0fef35f2-32ba-47d1-bcc0-f37f8e5362ff" width="1" height="3.9"/><line class="71e37e5a-c26f-4c79-809f-3026bbe58827" x1="0.5" y1="3.9" x2="0.5"/><rect class="0fef35f2-32ba-47d1-bcc0-f37f8e5362ff" y="1.5" width="1" height="1.8"/></pattern></defs><title>bed2</title><path class="4f9de87f-932e-4c5d-b212-fd142a8bd7fb" d="M604.4,197.8s24.2,10.2,24.5,17.3.2,11.8-.6,14.6l.9,31.1s0,9.4-4.7,12.3c-4.7,2.8-.9,81.2-.9,81.2s-9.4,2.8-17.9,0l-10.4-81.2H46.1L35.7,354.3c-8.5,2.8-17.9,0-17.9,0s3.8-78.3-.9-81.2c-4.7-2.8-4.7-12.3-4.7-12.3l.9-31.1.1-.5a56.52977,56.52977,0,0,0,3.1-13.8c.8-8,16.5-11.5,22.1-14.2s6.2-27.1,6.2-27.1S55,56.1,55.9,32.5C56.9,8.9,81.3,8.9,81.3,8.9H548.7s38.7,0,39.6,23.6S599.7,174,599.7,174l.8,10.4,3.9,13.4" transform="translate(-11.81998 -8.52)"/><path class="bed2-fill" d="M557.5,141.8a10.71771,10.71771,0,0,0,4.6-8.5l-64-32s-5.6-5.9-34.1-8.8-72.2-2.5-87.7,0-32.4,5.5-51.7,17.7c0,0-.8,4.4-1.4,9.2h-1.3c-.6-4.8-1.4-9.2-1.4-9.2C301.2,98,284.3,95,268.8,92.5s-59.2-2.9-87.7,0-34.1,8.8-34.1,8.8l-64,32a11.17976,11.17976,0,0,0,4.2,8.5l-.1.8c-17.9,6.6-38.1,6.6-40.9,29.2s-4.7,27.4-4.7,27.4l-.1.4s-.6,9.2,4.9,9.2H599c5.5,0,4.8-9.6,4.8-9.6s-1.9-4.7-4.7-27.4c-2.8-22.6-19.8-21.7-37.7-28.3a20.41577,20.41577,0,0,0-3.6-.9Z" transform="translate(-11.81998 -8.52)"/><path class="77547040-8112-4c8f-b0ae-e138dd4f98d2" d="M94.6,139.7l22.1-10.6s13.4,5.7,68.9,5.6S94.6,139.7,94.6,139.7Z" transform="translate(-11.81998 -8.52)"/><path class="fe8c6e1c-05af-4cbe-a7c5-c1b52d78c6ac" d="M120.5,130.3S196,118.1,312.4,129C312.4,129.1,181.3,141.7,120.5,130.3Z" transform="translate(-11.81998 -8.52)"/><path class="fe8c6e1c-05af-4cbe-a7c5-c1b52d78c6ac" d="M266.7,92.1s37.7,3.9,49.5,18c0,0,22.9,29.4-63.4,25H322V107.7C322,107.6,309.6,88.9,266.7,92.1Z" transform="translate(-11.81998 -8.52)"/><line class="740ab8e6-8c93-4c1b-94fb-273619644706" x1="43.58003" y1="264.68001" x2="6.38003" y2="264.68001"/><line class="740ab8e6-8c93-4c1b-94fb-273619644706" x1="97.88002" y1="291.87999" x2="98.78002" y2="292.37999"/><path class="740ab8e6-8c93-4c1b-94fb-273619644706" d="M87.3,142.7" transform="translate(-11.81998 -8.52)"/><path class="b3f27eaf-47f8-449c-8903-259611f52a7a" d="M87.6,141.5a1.238,1.238,0,0,1,.3.2c12.4-3,217.5-8.7,223-9.1s11.9-6.1,11.3-13.2" transform="translate(-11.81998 -8.52)"/><path class="b3f27eaf-47f8-449c-8903-259611f52a7a" d="M557.5,142.6c-33.8-5.8-228.4-6.7-228.4-6.7H315.9s-195.6.9-228.6,6.7" transform="translate(-11.81998 -8.52)"/><path class="b3f27eaf-47f8-449c-8903-259611f52a7a" d="M322.8,119.4c-.6,7.2,14.4,12.8,19.8,13.2,5.5.4,77.1,4.2,136.8,5,0,0,65.2,1.2,77.6,4.1l.1-.1" transform="translate(-11.81998 -8.52)"/><path class="0b98eaba-40cd-4dfb-8261-aaa1ec2f8a90" d="M550.5,139.7l-22.1-10.6s-13.4,5.7-68.9,5.6S550.5,139.7,550.5,139.7Z" transform="translate(-11.81998 -8.52)"/><path class="e93316d2-45b4-4686-bcb4-67806967f32d" d="M524.6,130.3s-75.5-12.2-191.9-1.3C332.7,129.1,463.8,141.7,524.6,130.3Z" transform="translate(-11.81998 -8.52)"/><path class="fe8c6e1c-05af-4cbe-a7c5-c1b52d78c6ac" d="M378.3,92.1s-37.7,3.9-49.5,18c0,0-22.9,29.4,63.4,25H323V107.7C323.1,107.6,335.4,88.9,378.3,92.1Z" transform="translate(-11.81998 -8.52)"/><line class="740ab8e6-8c93-4c1b-94fb-273619644706" x1="577.28" y1="264.77999" x2="614.48001" y2="264.77999"/><line class="740ab8e6-8c93-4c1b-94fb-273619644706" x1="523.58005" y1="291.87999" x2="522.58005" y2="292.37999"/><path class="fe8c6e1c-05af-4cbe-a7c5-c1b52d78c6ac" d="M41.4,199.2s-15.3,11.6-8.6,12.4a17.4674,17.4674,0,0,0,11.5-2.7l-6.6,5.3,263.5-5.3H57.2C57.2,208.8,42.9,209.6,41.4,199.2Z" transform="translate(-11.81998 -8.52)"/><line class="0fef35f2-32ba-47d1-bcc0-f37f8e5362ff" x1="304.08002" y1="127.48" x2="317.28003" y2="127.48"/></svg>