<svg id="9d5ea8f5-7063-48b2-be60-ea53609c4dc1" data-name="Layer 1" xmlns="http://www.w3.org/2000/svg" xmlns:xlink="http://www.w3.org/1999/xlink" viewBox="0 0 637.86957 254.97777"><defs><style>.\31 e3e04f3-53b7-4825-8d7c-abab3a134b2e,.\32 be47126-b9da-4d33-ad68-cf89beeef9d0,.\33 1f9fe60-d217-4888-b4ab-ef630603cdc3{fill:none;}.bed3-fill,.\31 e3e04f3-53b7-4825-8d7c-abab3a134b2e,.\33 1f9fe60-d217-4888-b4ab-ef630603cdc3,.\38 24573db-327f-4f1f-afc8-9368ff15fbeb{stroke:#000;stroke-miterlimit:10;}.\33 1f9fe60-d217-4888-b4ab-ef630603cdc3{stroke-width:0.25px;}.\38 24573db-327f-4f1f-afc8-9368ff15fbeb{fill:#c4c4c4;}.bed3-fill{fill:#fff;}.deb828c4-56f9-4b05-b851-fc7a02baf489{fill:url(#3d7a8044-0db5-4580-860b-62366f734a2a);}.a26347c0-e5e7-4c0d-bba0-cfb50b4ae46f{fill:url(#8d3f7c8e-d1f2-491f-867c-74b2547d889c);}.\38 da71e76-8b82-4f30-a98d-172e5649688c{fill:url(#b45d3de3-e00f-4c0b-ad27-fe43960a7186);}.\38 53d3652-8cf2-44b3-986c-718e54cc945d{fill:url(#cb8671db-68a5-429c-8e7f-08dc520a6d43);}</style><pattern id="3d7a8044-0db5-4580-860b-62366f734a2a" data-name="SVGID 1 " width="1" height="3.9" patternTransform="matrix(1.162, 1.6929, 2.1063, -1.4835, -13833.38318, -14166.55897)" patternUnits="userSpaceOnUse" viewBox="0 0 1 3.9"><rect class="2be47126-b9da-4d33-ad68-cf89beeef9d0" width="1" height="3.9"/><rect class="2be47126-b9da-4d33-ad68-cf89beeef9d0" width="1" height="3.9"/><line class="31f9fe60-d217-4888-b4ab-ef630603cdc3" x1="0.5" y1="3.9" x2="0.5"/><rect class="2be47126-b9da-4d33-ad68-cf89beeef9d0" y="1.5" width="1" height="1.8"/></pattern><pattern id="8d3f7c8e-d1f2-491f-867c-74b2547d889c" data-name="SVGID 4 " width="1" height="3.9" patternTransform="matrix(1.162, 1.6929, 2.1063, -1.4835, -13833.38318, -14187.34803)" patternUnits="userSpaceOnUse" viewBox="0 0 1 3.9"><rect class="2be47126-b9da-4d33-ad68-cf89beeef9d0" width="1" height="3.9"/><rect class="2be47126-b9da-4d33-ad68-cf89beeef9d0" width="1" height="3.9"/><line class="31f9fe60-d217-4888-b4ab-ef630603cdc3" x1="0.5" y1="3.9" x2="0.5"/><rect class="2be47126-b9da-4d33-ad68-cf89beeef9d0" y="1.5" width="1" height="1.8"/></pattern><pattern id="b45d3de3-e00f-4c0b-ad27-fe43960a7186" data-name="SVGID 5 " width="1" height="3.9" patternTransform="matrix(-1.162, 1.6929, -2.1063, -1.4835, -1180.29177, -14240.59224)" patternUnits="userSpaceOnUse" viewBox="0 0 1 3.9"><rect class="2be47126-b9da-4d33-ad68-cf89beeef9d0" width="1" height="3.9"/><rect class="2be47126-b9da-4d33-ad68-cf89beeef9d0" width="1" height="3.9"/><line class="31f9fe60-d217-4888-b4ab-ef630603cdc3" x1="0.5" y1="3.9" x2="0.5"/><rect class="2be47126-b9da-4d33-ad68-cf89beeef9d0" y="1.5" width="1" height="1.8"/></pattern><pattern id="cb8671db-68a5-429c-8e7f-08dc520a6d43" data-name="SVGID 7 " width="1" height="3.9" patternTransform="matrix(-1.162, 1.6929, -2.1063, -1.4835, -1176.33938, -14245.99946)" patternUnits="userSpaceOnUse" viewBox="0 0 1 3.9"><rect class="2be47126-b9da-4d33-ad68-cf89beeef9d0" width="1" height="3.9"/><rect class="2be47126-b9da-4d33-ad68-cf89beeef9d0" width="1" height="3.9"/><line class="31f9fe60-d217-4888-b4ab-ef630603cdc3" x1="0.5" y1="3.9" x2="0.5"/><rect class="2be47126-b9da-4d33-ad68-cf89beeef9d0" y="1.5" width="1" height="1.8"/></pattern></defs><title>bed3</title><path class="824573db-327f-4f1f-afc8-9368ff15fbeb" d="M332,258.8H625c17.6,0,17.4-6.9,17.4-6.9a186.72943,186.72943,0,0,1,0-22.3,22.27333,22.27333,0,0,0-9.4-19.8l-27.6-24.6-.7-23.9c-.7-23.9-6.7-25.2-14.1-32.7s-41.1-21.8-41.1-21.8V35.2c0-4.8-8.1-12.3-16.2-13s-183.8,0-183.8,0-15.4,1.4-25.5,6.8c-10.1-5.5-25.5-6.8-25.5-6.8s-175.7-.7-183.8,0-16.2,8.2-16.2,13v71.6s-33.7,14.3-41.1,21.8-13.5,8.9-14.1,32.7l-.7,23.9L15,209.8a22.09389,22.09389,0,0,0-9.4,19.8,187.46261,187.46261,0,0,1,0,22.3s-.2,6.9,17.4,6.9H332Z" transform="translate(-5.06523 -21.38888)"/><path class="bed3-fill" d="M549.6,107l-11.5-2.8s4.7-2.8,4.7-7.9l-59.4-30s-5.2-5.5-31.7-8.3-67-2.4-81.4,0-26.1,5.1-44,16.6c0,0-1,2-1.6,8.7a6.07868,6.07868,0,0,0,.1,1.9l-1.3-.2a9.14906,9.14906,0,0,0,.1-1.7c-.6-6.7-1.6-8.7-1.6-8.7C304.1,63.2,292.4,60.4,278,58s-54.9-2.8-81.4,0-31.7,8.3-31.7,8.3l-59.4,30a9.31883,9.31883,0,0,0,3.3,7l.5,1.1L98.6,107s-33.7,14.3-41.1,21.8S44,137.7,43.4,161.5l-.7,23.9v16.2s1.2,7.9,14.4,7.9h534c13.3,0,14.4-7.9,14.4-7.9V185.4l-.7-23.9c-.7-23.9-6.7-25.2-14.1-32.7C583.2,121.3,549.6,107,549.6,107Z" transform="translate(-5.06523 -21.38888)"/><path d="M57.1,258.8v15.3a13.9285,13.9285,0,0,0,15.2,0V258.8" transform="translate(-5.06523 -21.38888)"/><line class="1e3e04f3-53b7-4825-8d7c-abab3a134b2e" x1="318.93477" y1="9.01112" x2="318.93477" y2="68.51112"/><path class="1e3e04f3-53b7-4825-8d7c-abab3a134b2e" d="M105.3,96.2l59.4-30s5.2-5.5,31.7-8.3,67-2.4,81.4,0,26.1,5.1,44,16.6c0,0,1,2,1.6,8.7S314,93.8,309,94.2c-5.1.4-83.3,6.7-126.9,2,0,0-30.5.4-45.4-3.9,0,0-15.1,9.1-26.7,11.8C110,104.1,105.3,101.3,105.3,96.2Z" transform="translate(-5.06523 -21.38888)"/><path class="deb828c4-56f9-4b05-b851-fc7a02baf489" d="M116.1,102.2l20.5-9.9s12.4,5.4,64,5.3S116.1,102.2,116.1,102.2Z" transform="translate(-5.06523 -21.38888)"/><path class="deb828c4-56f9-4b05-b851-fc7a02baf489" d="M261.9,97.2h62l-.6-13C323.4,84.2,323.3,96.9,261.9,97.2Z" transform="translate(-5.06523 -21.38888)"/><path class="deb828c4-56f9-4b05-b851-fc7a02baf489" d="M12,212.3H245S11.8,240.8,5.5,251.9C5.5,251.9,5.8,217.7,12,212.3Z" transform="translate(-5.06523 -21.38888)"/><path class="a26347c0-e5e7-4c0d-bba0-cfb50b4ae46f" d="M140.2,93.4s66.1-11.5,174.1-1.2C314.3,92.3,196.6,104.1,140.2,93.4Z" transform="translate(-5.06523 -21.38888)"/><path d="M590.9,258.8v15.3a13.92852,13.92852,0,0,1-15.2,0V258.8" transform="translate(-5.06523 -21.38888)"/><path class="1e3e04f3-53b7-4825-8d7c-abab3a134b2e" d="M605.4,185.3v16.2s-1.2,7.9-14.4,7.9H57c-13.3,0-14.4-7.9-14.4-7.9V185.3" transform="translate(-5.06523 -21.38888)"/><line class="1e3e04f3-53b7-4825-8d7c-abab3a134b2e" x1="318.93477" y1="9.01112" x2="318.93477" y2="68.51112"/><path class="1e3e04f3-53b7-4825-8d7c-abab3a134b2e" d="M542.7,96.2l-59.4-30s-5.2-5.5-31.7-8.3-67-2.4-81.4,0-26.1,5.1-44,16.6c0,0-1,2-1.6,8.7s9.4,10.6,14.4,11c5.1.4,83.3,6.7,126.9,2,0,0,30.5.4,45.4-3.9,0,0,15.1,9.1,26.7,11.8C538,104.1,542.7,101.3,542.7,96.2Z" transform="translate(-5.06523 -21.38888)"/><path class="8da71e76-8b82-4f30-a98d-172e5649688c" d="M531.8,102.2l-20.5-9.9s-12.4,5.4-64,5.3S531.8,102.2,531.8,102.2Z" transform="translate(-5.06523 -21.38888)"/><path class="8da71e76-8b82-4f30-a98d-172e5649688c" d="M386,97.2H324l.6-13S324.7,96.9,386,97.2Z" transform="translate(-5.06523 -21.38888)"/><path class="853d3652-8cf2-44b3-986c-718e54cc945d" d="M507.8,97S314.3,70,331,92.9C331,92.9,451.4,107.7,507.8,97Z" transform="translate(-5.06523 -21.38888)"/><path class="deb828c4-56f9-4b05-b851-fc7a02baf489" d="M57.4,128.7s223.4,5.8,336.7,3c0,0-336,15.3-350.6,24.3C43.6,156,48.2,131.3,57.4,128.7Z" transform="translate(-5.06523 -21.38888)"/><line class="1e3e04f3-53b7-4825-8d7c-abab3a134b2e" x1="93.43477" y1="85.51112" x2="104.93477" y2="82.71112"/><line class="1e3e04f3-53b7-4825-8d7c-abab3a134b2e" x1="532.93477" y1="82.71112" x2="544.43477" y2="85.51112"/></svg>