<svg id="2c0e92a2-3b92-4503-ac5a-7875ad7b75ff" data-name="Layer 1" xmlns="http://www.w3.org/2000/svg" xmlns:xlink="http://www.w3.org/1999/xlink" viewBox="0 0 1699.78083 995.85821"><defs><style>.\37 4b8fb02-d1d6-4156-9948-c5ba6136a02a,.\37 d0a573b-9d11-4ea6-bda5-3d511484d093,.\38 0928a39-0241-4c60-a9aa-25de5b6595f0,.\38 12e04b3-0e3d-4317-b4ef-cc007c62b1c9,.a49e50f6-845e-4c14-9c65-dbaccd147681{fill:none;}.\37 d0a573b-9d11-4ea6-bda5-3d511484d093,.\38 0928a39-0241-4c60-a9aa-25de5b6595f0,.\38 12e04b3-0e3d-4317-b4ef-cc007c62b1c9,.\39 6f681cb-7967-4ae8-8233-ee9ac387e8b9,.a49e50f6-845e-4c14-9c65-dbaccd147681,.a561f527-ff70-4226-a577-0cf675c1098a{stroke:#000;stroke-miterlimit:10;}.\38 0928a39-0241-4c60-a9aa-25de5b6595f0{stroke-width:0.25px;}.a561f527-ff70-4226-a577-0cf675c1098a,.e120c733-056f-4eca-b36e-f4fe1d77eb5f{fill:#fff;}.b1e2139c-6e9f-4b4d-b1f1-444562d92865{fill:#c4c4c4;}.f1ef02ec-af0a-4a1a-b471-7dd7d5305111{fill:url(#33f063ec-9cbf-4402-ba79-223c4b3336c0);}.\38 12e04b3-0e3d-4317-b4ef-cc007c62b1c9{stroke-linecap:round;}.\36 047f2ce-4067-4c89-bf23-0ecdb5aa45f5{fill:url(#2d014d0a-29a8-44bc-b049-e0431b6f3b14);}.\39 6f681cb-7967-4ae8-8233-ee9ac387e8b9{fill:#ababab;stroke-width:1.0198px;}.\38 e34dea9-adc5-43ae-a7bc-fce845b5d51d{fill:url(#b1e31ad3-28b2-48e7-bbbe-24cbaee5e773);}.\37 d0a573b-9d11-4ea6-bda5-3d511484d093{stroke-width:0.5px;}.\38 a52d772-b115-4ca7-a145-f100ac89786d{fill:url(#6bde7972-5e77-46b1-bcfa-47ab5f99e5b0);}.\36 3c05f04-8501-400b-ba70-90948f489ddb{fill:url(#4738e629-e460-4a38-92f9-948c72aacf87);}.\36 76be30a-bf4b-4aa8-a0d5-475ce7637eb9{fill:url(#ed576981-2a79-41d6-b1d6-c41326046ee7);}</style><pattern id="33f063ec-9cbf-4402-ba79-223c4b3336c0" data-name="SVGID 1 " width="1" height="3.9" patternTransform="matrix(-1.0191, 1.4658, -1.8473, -1.2844, -3237.6456, -11642.1767)" patternUnits="userSpaceOnUse" viewBox="0 0 1 3.9"><rect class="74b8fb02-d1d6-4156-9948-c5ba6136a02a" width="1" height="3.9"/><rect class="74b8fb02-d1d6-4156-9948-c5ba6136a02a" width="1" height="3.9"/><line class="80928a39-0241-4c60-a9aa-25de5b6595f0" x1="0.5" y1="3.9" x2="0.5"/><rect class="74b8fb02-d1d6-4156-9948-c5ba6136a02a" y="1.5" width="1" height="1.8"/></pattern><pattern id="2d014d0a-29a8-44bc-b049-e0431b6f3b14" data-name="SVGID 2 " width="1" height="3.9" patternTransform="matrix(-0.7892, 1.135, -1.4305, -0.9946, -4133.27359, -7330.862)" patternUnits="userSpaceOnUse" viewBox="0 0 1 3.9"><rect class="74b8fb02-d1d6-4156-9948-c5ba6136a02a" width="1" height="3.9"/><rect class="74b8fb02-d1d6-4156-9948-c5ba6136a02a" width="1" height="3.9"/><line class="80928a39-0241-4c60-a9aa-25de5b6595f0" x1="0.5" y1="3.9" x2="0.5"/><rect class="74b8fb02-d1d6-4156-9948-c5ba6136a02a" y="1.5" width="1" height="1.8"/></pattern><pattern id="b1e31ad3-28b2-48e7-bbbe-24cbaee5e773" data-name="SVGID 5 " width="1" height="3.9" patternTransform="matrix(-0.7892, 1.135, -1.4305, -0.9946, -4135.77457, -7328.82392)" patternUnits="userSpaceOnUse" viewBox="0 0 1 3.9"><rect class="74b8fb02-d1d6-4156-9948-c5ba6136a02a" width="1" height="3.9"/><rect class="74b8fb02-d1d6-4156-9948-c5ba6136a02a" width="1" height="3.9"/><line class="80928a39-0241-4c60-a9aa-25de5b6595f0" x1="0.5" y1="3.9" x2="0.5"/><rect class="74b8fb02-d1d6-4156-9948-c5ba6136a02a" y="1.5" width="1" height="1.8"/></pattern><pattern id="6bde7972-5e77-46b1-bcfa-47ab5f99e5b0" data-name="SVGID 6 " width="1" height="3.9" patternTransform="matrix(1.0191, 1.4658, 1.8473, -1.2844, -11759.3748, -11589.54124)" patternUnits="userSpaceOnUse" viewBox="0 0 1 3.9"><rect class="74b8fb02-d1d6-4156-9948-c5ba6136a02a" width="1" height="3.9"/><rect class="74b8fb02-d1d6-4156-9948-c5ba6136a02a" width="1" height="3.9"/><line class="80928a39-0241-4c60-a9aa-25de5b6595f0" x1="0.5" y1="3.9" x2="0.5"/><rect class="74b8fb02-d1d6-4156-9948-c5ba6136a02a" y="1.5" width="1" height="1.8"/></pattern><pattern id="4738e629-e460-4a38-92f9-948c72aacf87" data-name="SVGID 7 " width="1" height="3.9" patternTransform="matrix(0.7892, 1.135, 1.4305, -0.9946, -10905.32257, -7299.54145)" patternUnits="userSpaceOnUse" viewBox="0 0 1 3.9"><rect class="74b8fb02-d1d6-4156-9948-c5ba6136a02a" width="1" height="3.9"/><rect class="74b8fb02-d1d6-4156-9948-c5ba6136a02a" width="1" height="3.9"/><line class="80928a39-0241-4c60-a9aa-25de5b6595f0" x1="0.5" y1="3.9" x2="0.5"/><rect class="74b8fb02-d1d6-4156-9948-c5ba6136a02a" y="1.5" width="1" height="1.8"/></pattern><pattern id="ed576981-2a79-41d6-b1d6-c41326046ee7" data-name="SVGID 10 " width="1" height="3.9" patternTransform="matrix(0.7892, 1.135, 1.4305, -0.9946, -10902.8216, -7297.50434)" patternUnits="userSpaceOnUse" viewBox="0 0 1 3.9"><rect class="74b8fb02-d1d6-4156-9948-c5ba6136a02a" width="1" height="3.9"/><rect class="74b8fb02-d1d6-4156-9948-c5ba6136a02a" width="1" height="3.9"/><line class="80928a39-0241-4c60-a9aa-25de5b6595f0" x1="0.5" y1="3.9" x2="0.5"/><rect class="74b8fb02-d1d6-4156-9948-c5ba6136a02a" y="1.5" width="1" height="1.8"/></pattern></defs><title>bedroom</title><path class="e120c733-056f-4eca-b36e-f4fe1d77eb5f" d="M919.5,449.5" transform="translate(9.09041 -34.65359)"/><polygon class="b1e2139c-6e9f-4b4d-b1f1-444562d92865" points="1603.89 91.546 1364.79 200.646 1365.59 625.446 1604.39 708.446 1603.89 91.546"/><line class="a49e50f6-845e-4c14-9c65-dbaccd147681" x1="1320.39046" y1="667.24644" x2="1644.49044" y2="790.44639"/><line class="a49e50f6-845e-4c14-9c65-dbaccd147681" x1="1319.69039" y1="648.34641" x2="1622.09041" y2="763.1464"/><polygon class="a49e50f6-845e-4c14-9c65-dbaccd147681" points="1344.59 631.646 1604.39 714.846 1603.89 82.146 1343.79 193.846 1344.59 631.646"/><line class="a49e50f6-845e-4c14-9c65-dbaccd147681" x1="1365.69039" y1="625.44639" x2="1604.39046" y2="708.54642"/><line class="a49e50f6-845e-4c14-9c65-dbaccd147681" x1="1603.99044" y1="91.54641" x2="1364.89046" y2="200.7464"/><line class="a49e50f6-845e-4c14-9c65-dbaccd147681" x1="1322.79036" y1="647.74644" x2="1620.79036" y2="760.84641"/><path class="a49e50f6-845e-4c14-9c65-dbaccd147681" d="M1314.3,596.1" transform="translate(9.09041 -34.65359)"/><line class="a49e50f6-845e-4c14-9c65-dbaccd147681" x1="1320.39046" y1="163.44642" x2="1643.39046" y2="0.44641"/><line class="a49e50f6-845e-4c14-9c65-dbaccd147681" x1="1319.69039" y1="182.34641" x2="1587.39046" y2="47.54641"/><polyline class="a49e50f6-845e-4c14-9c65-dbaccd147681" points="1322.69 183.346 1121.99 183.346 869.29 183.346"/><path class="a49e50f6-845e-4c14-9c65-dbaccd147681" d="M1569.5,88.8" transform="translate(9.09041 -34.65359)"/><line class="a49e50f6-845e-4c14-9c65-dbaccd147681" x1="1571.99044" y1="57.44641" x2="1578.59041" y2="54.14641"/><line class="a49e50f6-845e-4c14-9c65-dbaccd147681" x1="1322.79036" y1="182.94642" x2="1571.99044" y2="57.44641"/><line class="a49e50f6-845e-4c14-9c65-dbaccd147681" x1="1364.89046" y1="201.7464" x2="1343.79036" y2="194.84641"/><line class="a49e50f6-845e-4c14-9c65-dbaccd147681" x1="1365.79036" y1="624.54642" x2="1344.69039" y2="630.6464"/><polygon class="f1ef02ec-af0a-4a1a-b471-7dd7d5305111" points="1604.39 708.546 1365.69 625.446 1364.89 200.746 1603.99 91.546 1603.89 82.146 1343.79 193.846 1344.59 631.646 1604.39 714.846 1604.39 708.546"/><line class="a49e50f6-845e-4c14-9c65-dbaccd147681" x1="934.8904" y1="972.04642" x2="873.49044" y2="667.24644"/><line class="a49e50f6-845e-4c14-9c65-dbaccd147681" x1="1070.59041" y1="995.64646" x2="917.3904" y2="667.94639"/><line class="a49e50f6-845e-4c14-9c65-dbaccd147681" x1="1282.89046" y1="968.04642" x2="1006.49044" y2="667.24644"/><line class="a49e50f6-845e-4c14-9c65-dbaccd147681" x1="1323.39046" y1="912.94639" x2="1044.99044" y2="667.24644"/><line class="a49e50f6-845e-4c14-9c65-dbaccd147681" x1="1428.19039" y1="929.54642" x2="1088.29036" y2="668.84641"/><line class="a49e50f6-845e-4c14-9c65-dbaccd147681" x1="1532.69039" y1="928.94639" x2="1129.59041" y2="667.24644"/><line class="a49e50f6-845e-4c14-9c65-dbaccd147681" x1="1685.89046" y1="952.34641" x2="1178.09041" y2="667.6464"/><line class="a49e50f6-845e-4c14-9c65-dbaccd147681" x1="1577.49044" y1="836.44639" x2="1218.59041" y2="667.6464"/><line class="a49e50f6-845e-4c14-9c65-dbaccd147681" x1="1699.59041" y1="842.24644" x2="1278.09041" y2="668.6464"/><line class="a49e50f6-845e-4c14-9c65-dbaccd147681" x1="1156.29036" y1="948.94639" x2="962.99044" y2="667.84641"/><path class="a561f527-ff70-4226-a577-0cf675c1098a" d="M1141.8,723.1s-14.8.6-23.7,6.5a2.632,2.632,0,0,0,0,4.2s6.3,5.3,28.9,5.3h1.8c22.6,0,28.9-5.3,28.9-5.3,2.4-2.4,0-4.2,0-4.2-8.9-5.9-23.7-6.5-23.7-6.5l-.6-.5a28.63407,28.63407,0,0,1-3-10.7V667.4c0-30.2,8.4-31.9,8.4-31.9,26-1.3,38.7-4.3,42.6-6.3,2.3-1.2-.2-2.1-.2-2.1-16-2.9-50-3.3-50-3.3h-6.9s-34,.4-50,3.3c0,0-2.5.9-.2,2.1,3.9,2,16.6,5,42.6,6.3,0,0,8.4,1.7,8.4,31.9v44.5a28.63409,28.63409,0,0,1-3,10.7Z" transform="translate(9.09041 -34.65359)"/><path class="812e04b3-0e3d-4317-b4ef-cc007c62b1c9" d="M1153.5,722.6a12.95176,12.95176,0,0,0,8.8,7" transform="translate(9.09041 -34.65359)"/><path class="812e04b3-0e3d-4317-b4ef-cc007c62b1c9" d="M1133.5,729.5c4.3-.8,7-3.7,8.8-7" transform="translate(9.09041 -34.65359)"/><path class="a49e50f6-845e-4c14-9c65-dbaccd147681" d="M1093.6,627.9s6.7,3.3,53.4,3.3h1.8c46.7,0,53.4-3.3,53.4-3.3" transform="translate(9.09041 -34.65359)"/><path class="6047f2ce-4067-4c89-bf23-0ecdb5aa45f5" d="M1093,628s6.7,3.3,53.4,3.3h1.8c46.7,0,53.4-3.3,53.4-3.3l-.7,1.2c2.3-1.2-.2-2.1-.2-2.1-16-2.9-50-3.3-50-3.3h-6.9s-34,.4-50,3.3c0,0-2.5.9-.2,2.1Z" transform="translate(9.09041 -34.65359)"/><path class="6047f2ce-4067-4c89-bf23-0ecdb5aa45f5" d="M1150.5,711.9s1.8,19.5,17.6,17.6l6.2-1.9s17,7.9-20.4,11.3" transform="translate(9.09041 -34.65359)"/><path class="6047f2ce-4067-4c89-bf23-0ecdb5aa45f5" d="M1201.7,628s-6.1,6-42.7,7.4c0,0-4.1-.6-7,13.3,0,0-7.1-3.4-14-12.8" transform="translate(9.09041 -34.65359)"/><path class="a49e50f6-845e-4c14-9c65-dbaccd147681" d="M1140.6,575.5v52.2a14.227,14.227,0,0,0,6.8,1.7h.9a14.72186,14.72186,0,0,0,6.8-1.7V575.5" transform="translate(9.09041 -34.65359)"/><path class="a49e50f6-845e-4c14-9c65-dbaccd147681" d="M1140.6,615.3a20.35939,20.35939,0,0,0,6.8,1.1h.9a21.10112,21.10112,0,0,0,6.8-1.1" transform="translate(9.09041 -34.65359)"/><path class="a561f527-ff70-4226-a577-0cf675c1098a" d="M1140.6,575.5v52.2a14.227,14.227,0,0,0,6.8,1.7h.9a14.72186,14.72186,0,0,0,6.8-1.7V575.5" transform="translate(9.09041 -34.65359)"/><path class="96f681cb-7967-4ae8-8233-ee9ac387e8b9" d="M1140.6,564.2v52.2a14.227,14.227,0,0,0,6.8,1.7h.9a14.72186,14.72186,0,0,0,6.8-1.7V564.2" transform="translate(9.09041 -34.65359)"/><path class="a561f527-ff70-4226-a577-0cf675c1098a" d="M1147.4,583.1c-23.9,0-29.2-4-29.2-4V546.4a140.62392,140.62392,0,0,1,29.6-2.2,210.77448,210.77448,0,0,1,29.6,2.2v32.7s-5.3,4-29.2,4Z" transform="translate(9.09041 -34.65359)"/><path class="8e34dea9-adc5-43ae-a7bc-fce845b5d51d" d="M1147.4,583.1c-23.9,0-29.2-4-29.2-4V546.4a140.62392,140.62392,0,0,1,29.6-2.2,210.77448,210.77448,0,0,1,29.6,2.2v32.7s-5.3,4-29.2,4Z" transform="translate(9.09041 -34.65359)"/><polyline class="a49e50f6-845e-4c14-9c65-dbaccd147681" points="1367.09 200.646 1364.09 205.646 1367.09 210.646 1364.09 215.646 1367.09 220.646 1364.09 225.546 1367.09 230.546 1364.09 235.546 1367.09 240.546 1364.09 245.546 1367.09 250.546 1364.09 255.546 1367.09 260.546 1364.09 265.546 1367.09 270.546 1364.09 275.546 1367.09 280.546 1364.09 285.546 1367.09 290.546 1364.09 295.446 1367.09 300.446 1364.09 305.446 1367.09 310.446 1364.09 315.446 1367.09 320.446 1364.09 325.446 1367.09 330.446 1364.09 335.446 1367.09 340.446 1364.09 345.446 1367.09 350.446 1364.09 355.446 1367.09 360.446 1364.09 365.446 1367.09 370.346 1364.09 375.346 1367.09 380.346 1364.09 385.346 1367.09 390.346 1364.09 395.346 1367.09 400.346 1364.09 405.346 1367.09 410.346 1364.09 415.346 1367.09 420.346 1364.09 425.346 1367.09 430.346 1364.09 435.346 1367.09 440.346 1364.09 445.346 1367.09 450.246 1364.09 455.246 1367.09 460.246 1364.09 465.246 1367.09 470.246 1364.09 475.246 1367.09 480.246 1364.09 485.246 1367.09 490.246 1364.09 495.246 1367.09 500.246 1364.09 505.246 1367.09 510.246 1364.09 515.246 1367.09 520.246 1364.09 525.246 1367.09 530.246 1364.09 535.246 1367.09 540.146 1364.09 545.146 1367.09 550.146 1364.09 555.146 1367.09 560.146 1364.09 565.146 1367.09 570.146 1364.09 575.146 1367.09 580.146 1364.09 585.146 1367.09 590.146 1364.09 595.146 1367.09 600.146 1364.09 605.146 1367.09 610.146 1364.09 615.146 1367.09 620.146 1364.09 625.146"/><line class="7d0a573b-9d11-4ea6-bda5-3d511484d093" x1="1365.79036" y1="350.6464" x2="1601.09041" y2="382.6464"/><line class="7d0a573b-9d11-4ea6-bda5-3d511484d093" x1="1366.39046" y1="260.04642" x2="1554.39046" y2="228.6464"/><line class="7d0a573b-9d11-4ea6-bda5-3d511484d093" x1="1367.09041" y1="300.04642" x2="1480.39046" y2="298.04642"/><line class="7d0a573b-9d11-4ea6-bda5-3d511484d093" x1="1363.79036" y1="325.34641" x2="1595.79036" y2="340.04642"/><line class="7d0a573b-9d11-4ea6-bda5-3d511484d093" x1="1365.79036" y1="280.04642" x2="1550.39046" y2="268.6464"/><line class="7d0a573b-9d11-4ea6-bda5-3d511484d093" x1="1604.39046" y1="146.64641" x2="1404.39046" y2="209.34641"/><line class="7d0a573b-9d11-4ea6-bda5-3d511484d093" x1="1366.39046" y1="240.04642" x2="1513.79036" y2="207.34641"/><line class="7d0a573b-9d11-4ea6-bda5-3d511484d093" x1="1603.09041" y1="242.6464" x2="1471.09041" y2="255.34641"/><line class="7d0a573b-9d11-4ea6-bda5-3d511484d093" x1="1604.39046" y1="307.34641" x2="1445.09041" y2="306.6464"/><line class="7d0a573b-9d11-4ea6-bda5-3d511484d093" x1="1602.39046" y1="350.04642" x2="1421.79036" y2="336.04642"/><line class="7d0a573b-9d11-4ea6-bda5-3d511484d093" x1="1603.09041" y1="372.6464" x2="1476.49044" y2="358.1464"/><line class="7d0a573b-9d11-4ea6-bda5-3d511484d093" x1="1364.39046" y1="609.34641" x2="1589.09041" y2="680.04642"/><line class="7d0a573b-9d11-4ea6-bda5-3d511484d093" x1="1603.09041" y1="670.04642" x2="1400.39046" y2="610.04642"/><line class="7d0a573b-9d11-4ea6-bda5-3d511484d093" x1="1365.09041" y1="579.34641" x2="1578.89046" y2="645.24644"/><line class="7d0a573b-9d11-4ea6-bda5-3d511484d093" x1="1603.79036" y1="635.34641" x2="1371.09041" y2="571.34641"/><line class="7d0a573b-9d11-4ea6-bda5-3d511484d093" x1="1365.09041" y1="548.6464" x2="1505.09041" y2="591.34641"/><line class="7d0a573b-9d11-4ea6-bda5-3d511484d093" x1="1365.09041" y1="539.34641" x2="1443.09041" y2="562.6464"/><line class="7d0a573b-9d11-4ea6-bda5-3d511484d093" x1="1365.79036" y1="450.6464" x2="1575.79036" y2="500.6464"/><line class="7d0a573b-9d11-4ea6-bda5-3d511484d093" x1="1604.39046" y1="488.6464" x2="1417.09041" y2="447.34641"/><line class="7d0a573b-9d11-4ea6-bda5-3d511484d093" x1="1364.39046" y1="410.04642" x2="1501.79036" y2="436.6464"/><line class="7d0a573b-9d11-4ea6-bda5-3d511484d093" x1="1365.79036" y1="389.34641" x2="1560.39046" y2="423.34641"/><line class="7d0a573b-9d11-4ea6-bda5-3d511484d093" x1="1603.79036" y1="440.04642" x2="1453.79036" y2="411.34641"/><line class="7d0a573b-9d11-4ea6-bda5-3d511484d093" x1="1366.39046" y1="480.24644" x2="1507.09041" y2="514.84641"/><line class="7d0a573b-9d11-4ea6-bda5-3d511484d093" x1="1456.69039" y1="491.04642" x2="1603.99044" y2="523.24644"/><line class="7d0a573b-9d11-4ea6-bda5-3d511484d093" x1="1366.09041" y1="510.34641" x2="1585.49044" y2="564.54642"/><line class="7d0a573b-9d11-4ea6-bda5-3d511484d093" x1="1603.69039" y1="584.54642" x2="1417.89046" y2="535.54642"/><line class="7d0a573b-9d11-4ea6-bda5-3d511484d093" x1="1603.99044" y1="595.34641" x2="1471.09041" y2="560.34641"/><line class="7d0a573b-9d11-4ea6-bda5-3d511484d093" x1="1364.19039" y1="500.74644" x2="1487.79036" y2="530.04642"/><line class="7d0a573b-9d11-4ea6-bda5-3d511484d093" x1="1365.89046" y1="469.84641" x2="1435.19039" y2="484.94639"/><line class="7d0a573b-9d11-4ea6-bda5-3d511484d093" x1="1364.99044" y1="371.34641" x2="1580.49044" y2="407.2464"/><line class="7d0a573b-9d11-4ea6-bda5-3d511484d093" x1="1365.89046" y1="359.6464" x2="1556.29036" y2="386.34641"/><line class="7d0a573b-9d11-4ea6-bda5-3d511484d093" x1="1368.39046" y1="308.7464" x2="1537.09041" y2="316.2464"/><line class="7d0a573b-9d11-4ea6-bda5-3d511484d093" x1="1366.69039" y1="289.54642" x2="1586.29036" y2="286.1464"/><polyline class="a49e50f6-845e-4c14-9c65-dbaccd147681" points="1320.39 648.946 939.69 648.946 760.19 648.946 379.49 648.946"/><path class="e120c733-056f-4eca-b36e-f4fe1d77eb5f" d="M762.1,449.5" transform="translate(9.09041 -34.65359)"/><polygon class="b1e2139c-6e9f-4b4d-b1f1-444562d92865" points="95.89 91.546 334.99 200.646 334.19 625.446 95.49 708.446 95.89 91.546"/><polyline class="a49e50f6-845e-4c14-9c65-dbaccd147681" points="376.49 183.246 376.49 647.346 379.49 648.346 379.49 667.246 799.49 667.246 900.29 667.246 1320.39 667.246 1320.39 648.346 1323.39 647.346 1323.39 186.246"/><line class="a49e50f6-845e-4c14-9c65-dbaccd147681" x1="379.49041" y1="667.24644" x2="55.29041" y2="790.44639"/><line class="a49e50f6-845e-4c14-9c65-dbaccd147681" x1="380.09041" y1="648.34641" x2="77.79041" y2="763.1464"/><polygon class="a49e50f6-845e-4c14-9c65-dbaccd147681" points="355.19 631.646 95.39 714.846 95.89 82.146 355.99 193.846 355.19 631.646"/><line class="a49e50f6-845e-4c14-9c65-dbaccd147681" x1="334.19042" y1="625.44639" x2="95.39042" y2="708.54642"/><line class="a49e50f6-845e-4c14-9c65-dbaccd147681" x1="95.89042" y1="91.54641" x2="334.8904" y2="200.7464"/><polyline class="a49e50f6-845e-4c14-9c65-dbaccd147681" points="377.09 647.346 757.79 647.346 941.99 647.346 1322.69 647.346"/><line class="a49e50f6-845e-4c14-9c65-dbaccd147681" x1="376.99041" y1="647.74644" x2="78.99041" y2="760.84641"/><path class="a49e50f6-845e-4c14-9c65-dbaccd147681" d="M367.4,596.1" transform="translate(9.09041 -34.65359)"/><polyline class="a49e50f6-845e-4c14-9c65-dbaccd147681" points="376.49 183.346 379.49 182.346 379.49 163.446 799.49 163.446 900.29 163.446 1320.39 163.446 1320.39 182.346 1323.39 183.346"/><line class="a49e50f6-845e-4c14-9c65-dbaccd147681" x1="379.49041" y1="163.44642" x2="56.39041" y2="0.44641"/><line class="a49e50f6-845e-4c14-9c65-dbaccd147681" x1="380.09041" y1="182.34641" x2="112.39042" y2="47.54641"/><polyline class="a49e50f6-845e-4c14-9c65-dbaccd147681" points="379.49 181.746 580.19 181.746 831.59 181.746 868.29 181.746 1119.69 181.746 1320.39 181.746"/><polyline class="a49e50f6-845e-4c14-9c65-dbaccd147681" points="830.49 183.346 834.49 183.346 865.39 183.346 869.29 183.346"/><polyline class="a49e50f6-845e-4c14-9c65-dbaccd147681" points="377.09 183.346 577.79 183.346 830.49 183.346"/><path class="a49e50f6-845e-4c14-9c65-dbaccd147681" d="M112.1,88.8" transform="translate(9.09041 -34.65359)"/><line class="a49e50f6-845e-4c14-9c65-dbaccd147681" x1="127.79041" y1="57.44641" x2="121.19041" y2="54.14641"/><line class="a49e50f6-845e-4c14-9c65-dbaccd147681" x1="376.99041" y1="182.94642" x2="127.79041" y2="57.44641"/><line class="a49e50f6-845e-4c14-9c65-dbaccd147681" x1="334.8904" y1="201.7464" x2="355.99041" y2="194.84641"/><line class="a49e50f6-845e-4c14-9c65-dbaccd147681" x1="333.99041" y1="624.54642" x2="355.09041" y2="630.6464"/><polygon class="8a52d772-b115-4ca7-a145-f100ac89786d" points="95.39 708.546 334.19 625.446 334.89 200.746 95.89 91.546 95.89 82.146 355.99 193.846 355.19 631.646 95.39 714.846 95.39 708.546"/><line class="a49e50f6-845e-4c14-9c65-dbaccd147681" x1="764.8904" y1="972.04642" x2="826.29043" y2="667.24644"/><line class="a49e50f6-845e-4c14-9c65-dbaccd147681" x1="629.29043" y1="995.64646" x2="782.3904" y2="667.94639"/><line class="a49e50f6-845e-4c14-9c65-dbaccd147681" x1="416.8904" y1="968.04642" x2="693.29043" y2="667.24644"/><line class="a49e50f6-845e-4c14-9c65-dbaccd147681" x1="376.49041" y1="912.94639" x2="654.79043" y2="667.24644"/><line class="a49e50f6-845e-4c14-9c65-dbaccd147681" x1="271.69042" y1="929.54642" x2="611.49044" y2="668.84641"/><line class="a49e50f6-845e-4c14-9c65-dbaccd147681" x1="167.09041" y1="928.94639" x2="570.19039" y2="667.24644"/><line class="a49e50f6-845e-4c14-9c65-dbaccd147681" x1="13.99041" y1="952.34641" x2="521.69039" y2="667.6464"/><line class="a49e50f6-845e-4c14-9c65-dbaccd147681" x1="122.39042" y1="836.44639" x2="481.29043" y2="667.6464"/><line class="a49e50f6-845e-4c14-9c65-dbaccd147681" x1="0.19041" y1="842.24644" x2="421.69042" y2="668.6464"/><line class="a49e50f6-845e-4c14-9c65-dbaccd147681" x1="543.49044" y1="948.94639" x2="736.8904" y2="667.84641"/><path class="a561f527-ff70-4226-a577-0cf675c1098a" d="M539.9,723.1s14.8.6,23.7,6.5a2.632,2.632,0,0,1,0,4.2s-6.3,5.3-28.9,5.3h-1.8c-22.6,0-28.9-5.3-28.9-5.3-2.4-2.4,0-4.2,0-4.2,8.9-5.9,23.7-6.5,23.7-6.5l.6-.5a28.63274,28.63274,0,0,0,3-10.7V667.4c0-30.2-8.4-31.9-8.4-31.9-26-1.3-38.7-4.3-42.6-6.3-2.3-1.2.2-2.1.2-2.1,16-2.9,50-3.3,50-3.3h6.9s34,.4,50,3.3c0,0,2.5.9.2,2.1-3.9,2-16.6,5-42.6,6.3,0,0-8.4,1.7-8.4,31.9v44.5a28.63274,28.63274,0,0,0,3,10.7Z" transform="translate(9.09041 -34.65359)"/><path class="812e04b3-0e3d-4317-b4ef-cc007c62b1c9" d="M528.1,722.6a12.95191,12.95191,0,0,1-8.8,7" transform="translate(9.09041 -34.65359)"/><path class="812e04b3-0e3d-4317-b4ef-cc007c62b1c9" d="M548.1,729.5c-4.3-.8-7-3.7-8.8-7" transform="translate(9.09041 -34.65359)"/><path class="a49e50f6-845e-4c14-9c65-dbaccd147681" d="M588,627.9s-6.7,3.3-53.4,3.3h-1.8c-46.7,0-53.4-3.3-53.4-3.3" transform="translate(9.09041 -34.65359)"/><path class="63c05f04-8501-400b-ba70-90948f489ddb" d="M588.6,628s-6.7,3.3-53.4,3.3h-1.8c-46.7,0-53.4-3.3-53.4-3.3l.7,1.2c-2.3-1.2.2-2.1.2-2.1,16-2.9,50-3.3,50-3.3h6.9s34,.4,50,3.3c0,0,2.5.9.2,2.1Z" transform="translate(9.09041 -34.65359)"/><path class="63c05f04-8501-400b-ba70-90948f489ddb" d="M531.1,711.9s-1.8,19.5-17.6,17.6l-6.2-1.9s-17,7.9,20.4,11.3" transform="translate(9.09041 -34.65359)"/><path class="63c05f04-8501-400b-ba70-90948f489ddb" d="M480,628s6.1,6,42.7,7.4c0,0,4.1-.6,7,13.3,0,0,7.1-3.4,14-12.8" transform="translate(9.09041 -34.65359)"/><path class="a49e50f6-845e-4c14-9c65-dbaccd147681" d="M541,575.5v52.2a14.22662,14.22662,0,0,1-6.8,1.7h-.9a14.72145,14.72145,0,0,1-6.8-1.7V575.5" transform="translate(9.09041 -34.65359)"/><path class="a49e50f6-845e-4c14-9c65-dbaccd147681" d="M541,615.3a20.3588,20.3588,0,0,1-6.8,1.1h-.9a21.10049,21.10049,0,0,1-6.8-1.1" transform="translate(9.09041 -34.65359)"/><path class="a561f527-ff70-4226-a577-0cf675c1098a" d="M541,575.5v52.2a14.22662,14.22662,0,0,1-6.8,1.7h-.9a14.72145,14.72145,0,0,1-6.8-1.7V575.5" transform="translate(9.09041 -34.65359)"/><path class="96f681cb-7967-4ae8-8233-ee9ac387e8b9" d="M541,564.2v52.2a14.22662,14.22662,0,0,1-6.8,1.7h-.9a14.72145,14.72145,0,0,1-6.8-1.7V564.2" transform="translate(9.09041 -34.65359)"/><path class="a561f527-ff70-4226-a577-0cf675c1098a" d="M534.3,583.1c23.9,0,29.2-4,29.2-4V546.4a140.62375,140.62375,0,0,0-29.6-2.2,210.77556,210.77556,0,0,0-29.6,2.2v32.7s5.3,4,29.2,4Z" transform="translate(9.09041 -34.65359)"/><path class="676be30a-bf4b-4aa8-a0d5-475ce7637eb9" d="M534.3,583.1c23.9,0,29.2-4,29.2-4V546.4a140.62375,140.62375,0,0,0-29.6-2.2,210.77556,210.77556,0,0,0-29.6,2.2v32.7s5.3,4,29.2,4Z" transform="translate(9.09041 -34.65359)"/><polyline class="a49e50f6-845e-4c14-9c65-dbaccd147681" points="335.69 200.646 332.69 205.646 335.69 210.646 332.69 215.646 335.69 220.646 332.69 225.546 335.69 230.546 332.69 235.546 335.69 240.546 332.69 245.546 335.69 250.546 332.69 255.546 335.69 260.546 332.69 265.546 335.69 270.546 332.69 275.546 335.69 280.546 332.69 285.546 335.69 290.546 332.69 295.446 335.69 300.446 332.69 305.446 335.69 310.446 332.69 315.446 335.69 320.446 332.69 325.446 335.69 330.446 332.69 335.446 335.69 340.446 332.69 345.446 335.69 350.446 332.69 355.446 335.69 360.446 332.69 365.446 335.69 370.346 332.69 375.346 335.69 380.346 332.69 385.346 335.69 390.346 332.69 395.346 335.69 400.346 332.69 405.346 335.69 410.346 332.69 415.346 335.69 420.346 332.69 425.346 335.69 430.346 332.69 435.346 335.69 440.346 332.69 445.346 335.69 450.246 332.69 455.246 335.69 460.246 332.69 465.246 335.69 470.246 332.69 475.246 335.69 480.246 332.69 485.246 335.69 490.246 332.69 495.246 335.69 500.246 332.69 505.246 335.69 510.246 332.69 515.246 335.69 520.246 332.69 525.246 335.69 530.246 332.69 535.246 335.69 540.146 332.69 545.146 335.69 550.146 332.69 555.146 335.69 560.146 332.69 565.146 335.69 570.146 332.69 575.146 335.69 580.146 332.69 585.146 335.69 590.146 332.69 595.146 335.69 600.146 332.69 605.146 335.69 610.146 332.69 615.146 335.69 620.146 332.69 625.146"/><line class="7d0a573b-9d11-4ea6-bda5-3d511484d093" x1="334.09041" y1="350.6464" x2="98.69041" y2="382.6464"/><line class="7d0a573b-9d11-4ea6-bda5-3d511484d093" x1="333.3904" y1="260.04642" x2="145.39042" y2="228.6464"/><line class="7d0a573b-9d11-4ea6-bda5-3d511484d093" x1="332.69042" y1="300.04642" x2="219.39042" y2="298.04642"/><line class="7d0a573b-9d11-4ea6-bda5-3d511484d093" x1="336.09041" y1="325.34641" x2="104.09041" y2="340.04642"/><line class="7d0a573b-9d11-4ea6-bda5-3d511484d093" x1="334.09041" y1="280.04642" x2="149.39042" y2="268.6464"/><line class="7d0a573b-9d11-4ea6-bda5-3d511484d093" x1="95.39042" y1="146.64641" x2="295.3904" y2="209.34641"/><line class="7d0a573b-9d11-4ea6-bda5-3d511484d093" x1="333.3904" y1="240.04642" x2="186.09041" y2="207.34641"/><line class="7d0a573b-9d11-4ea6-bda5-3d511484d093" x1="96.69041" y1="242.6464" x2="228.69042" y2="255.34641"/><line class="7d0a573b-9d11-4ea6-bda5-3d511484d093" x1="95.39042" y1="307.34641" x2="254.69042" y2="306.6464"/><line class="7d0a573b-9d11-4ea6-bda5-3d511484d093" x1="97.39042" y1="350.04642" x2="278.09041" y2="336.04642"/><line class="7d0a573b-9d11-4ea6-bda5-3d511484d093" x1="96.69041" y1="372.6464" x2="223.29041" y2="358.1464"/><line class="7d0a573b-9d11-4ea6-bda5-3d511484d093" x1="335.3904" y1="609.34641" x2="110.69041" y2="680.04642"/><line class="7d0a573b-9d11-4ea6-bda5-3d511484d093" x1="96.69041" y1="670.04642" x2="299.3904" y2="610.04642"/><line class="7d0a573b-9d11-4ea6-bda5-3d511484d093" x1="334.69042" y1="579.34641" x2="136.69041" y2="644.04642"/><line class="7d0a573b-9d11-4ea6-bda5-3d511484d093" x1="96.09041" y1="635.34641" x2="328.69042" y2="571.34641"/><line class="7d0a573b-9d11-4ea6-bda5-3d511484d093" x1="334.69042" y1="548.6464" x2="194.69042" y2="591.34641"/><line class="7d0a573b-9d11-4ea6-bda5-3d511484d093" x1="334.69042" y1="539.34641" x2="256.69042" y2="562.6464"/><line class="7d0a573b-9d11-4ea6-bda5-3d511484d093" x1="334.09041" y1="450.6464" x2="124.09041" y2="500.6464"/><line class="7d0a573b-9d11-4ea6-bda5-3d511484d093" x1="95.39042" y1="488.6464" x2="282.69042" y2="447.34641"/><line class="7d0a573b-9d11-4ea6-bda5-3d511484d093" x1="335.3904" y1="410.04642" x2="198.09041" y2="436.6464"/><line class="7d0a573b-9d11-4ea6-bda5-3d511484d093" x1="334.09041" y1="389.34641" x2="139.39042" y2="423.34641"/><line class="7d0a573b-9d11-4ea6-bda5-3d511484d093" x1="96.09041" y1="440.04642" x2="246.09041" y2="411.34641"/><line class="7d0a573b-9d11-4ea6-bda5-3d511484d093" x1="333.3904" y1="480.24644" x2="192.69042" y2="514.84641"/><line class="7d0a573b-9d11-4ea6-bda5-3d511484d093" x1="243.09041" y1="491.04642" x2="95.79041" y2="523.24644"/><line class="7d0a573b-9d11-4ea6-bda5-3d511484d093" x1="333.69042" y1="510.34641" x2="114.39042" y2="564.54642"/><line class="7d0a573b-9d11-4ea6-bda5-3d511484d093" x1="96.19041" y1="584.54642" x2="281.99041" y2="535.54642"/><line class="7d0a573b-9d11-4ea6-bda5-3d511484d093" x1="95.79041" y1="595.34641" x2="228.79041" y2="560.34641"/><line class="7d0a573b-9d11-4ea6-bda5-3d511484d093" x1="335.59041" y1="500.74644" x2="212.09041" y2="530.04642"/><line class="7d0a573b-9d11-4ea6-bda5-3d511484d093" x1="333.99041" y1="469.84641" x2="264.69042" y2="484.94639"/><line class="7d0a573b-9d11-4ea6-bda5-3d511484d093" x1="334.79043" y1="371.34641" x2="119.39042" y2="407.2464"/><line class="7d0a573b-9d11-4ea6-bda5-3d511484d093" x1="333.99041" y1="359.6464" x2="143.59041" y2="386.34641"/><line class="7d0a573b-9d11-4ea6-bda5-3d511484d093" x1="331.49041" y1="308.7464" x2="162.79041" y2="316.2464"/><line class="7d0a573b-9d11-4ea6-bda5-3d511484d093" x1="333.09041" y1="289.54642" x2="113.49041" y2="286.1464"/></svg>