<svg id="Layer_1" data-name="Layer 1" xmlns="http://www.w3.org/2000/svg" xmlns:xlink="http://www.w3.org/1999/xlink" viewBox="0 0 608.5078 259.8179">
    <defs>
        <style>
            .cls-2-1,
            .cls-2-2,
            .cls-2-6 {
                fill: none;
            }

            .cls-2-2,
            .cls-2-3,
            .cls-2-4,
            .cls-2-5,
            .cls-2-6 {
                stroke: #000;
                stroke-miterlimit: 10;
            }

            .cls-2-2 {
                stroke-width: 0.25px;
            }

            .cls-2-3 {
                fill: #8c2828;
            }

            .cls-2-4,
            .cls-2-5 {
                fill: #ababab;
            }

            .cls-2-4 {
                stroke-width: 1.0198px;
            }

            .cls-2-5,
            .cls-2-6 {
                stroke-width: 1.0309px;
            }

            .cls-2-7 {
                fill: url(#New_Pattern_Swatch_1);
            }

            .cls-2-8 {
                fill: url(#New_Pattern_Swatch_1-3);
            }
        </style>
        <pattern id="New_Pattern_Swatch_1" data-name="New Pattern Swatch 1" width="1.046" height="3.8938" patternTransform="matrix(1.0191, 1.4658, -1.8473, 1.2844, 8.7538, -8.1761)" patternUnits="userSpaceOnUse" viewBox="0 0 1.046 3.894">
            <rect class="cls-2-1" width="1.046" height="3.8938" />
            <line class="cls-2-2" x1="0.5075" x2="0.5075" y2="3.8938" />
            <rect class="cls-2-1" y="0.6395" width="1.046" height="1.8014" />
        </pattern>
        <pattern id="New_Pattern_Swatch_1-3" data-name="New Pattern Swatch 1" width="1.046" height="3.8938" patternTransform="matrix(1.0191, 1.4658, -1.8473, 1.2844, 16.4379, -15.1219)" patternUnits="userSpaceOnUse" viewBox="0 0 1.046 3.894">
            <rect class="cls-2-1" width="1.046" height="3.8938" />
            <line class="cls-2-2" x1="0.5075" x2="0.5075" y2="3.8938" />
            <rect class="cls-2-1" y="0.6395" width="1.046" height="1.8014" />
        </pattern>
    </defs>
    <title>couch3</title>
    <path class="cls-2-3" d="M640.0582,585.7975h303.23V452.0784c0-7.92-4.8736-8.8334-4.8736-8.8334a394.6944,394.6944,0,0,0-40.2071-6.092c-20.1036-1.8276-28.6323,0-28.6323,0s-3.046-41.73-3.3506-47.8221-1.8276-7.0058-9.4426-7.0058-214.1334.6092-214.1334.6092h-6.1806s-206.5184-.6092-214.1334-.6092-9.138.9138-9.4426,7.0058-3.3506,47.8221-3.3506,47.8221-8.5288-1.8276-28.6323,0a394.6944,394.6944,0,0,0-40.2071,6.092s-4.8736.9138-4.8736,8.8334V585.7975h304.23Z" transform="translate(-335.3282 -381.8251)" />
    <path class="cls-2-4" d="M380.3,585.7975s3.6552,49.105,5.4828,54.4907c0,0,1.8276,1.9008,6.092,0,0,0,3.3506-12.9891,4.569-54.4907" transform="translate(-335.3282 -381.8251)" />
    <path class="cls-2-5" d="M420.7814,585.7975c.8561,9.9174,1.8835,20.35,2.5684,22.4128,0,0,1.37,1.4558,4.566,0,0,0,1.4126-5.5956,2.5042-21.8024" transform="translate(-335.3282 -381.8251)" />
    <path class="cls-2-6" d="M409.5413,437.153l.6092,46.9083s-24.9772,5.4828-35.0289,14.0116v34.42s5.1782,4.2644,15.23,6.7012,246.421,0,246.421,0h5.5714s236.3692,2.4368,246.421,0,15.23-6.7012,15.23-6.7012v-34.42c-10.0518-8.5288-35.0289-14.0116-35.0289-14.0116l.6092-46.9083" transform="translate(-335.3282 -381.8251)" />
    <path class="cls-2-6" d="M390.0009,539.2768s-21.276-.9968-21.276,10.2734v36.2473" transform="translate(-335.3282 -381.8251)" />
    <circle class="cls-2-6" cx="122.1675" cy="52.9874" r="3.4375" />
    <circle class="cls-2-6" cx="167.855" cy="52.9874" r="3.4375" />
    <circle class="cls-2-6" cx="212.98" cy="53.6749" r="3.4375" />
    <circle class="cls-2-6" cx="258.73" cy="53.6749" r="3.4375" />
    <path class="cls-2-4" d="M898.8166,585.7975s-3.6552,49.105-5.4828,54.4907c0,0-1.8276,1.9008-6.092,0,0,0-3.3506-12.9891-4.569-54.4907" transform="translate(-335.3282 -381.8251)" />
    <path class="cls-2-5" d="M858.335,585.7975c-.8561,9.9174-1.8835,20.35-2.5684,22.4128,0,0-1.37,1.4558-4.566,0,0,0-1.4126-5.5956-2.5042-21.8024" transform="translate(-335.3282 -381.8251)" />
    <path class="cls-2-6" d="M889.1154,539.2768s21.276-.9968,21.276,10.2734v36.2473" transform="translate(-335.3282 -381.8251)" />
    <path class="cls-2-6" d="M865.92,484.0613s-62.7475-4-223.576-4h-5.5714c-160.8285,0-223.576,4-223.576,4" transform="translate(-335.3282 -381.8251)" />
    <path class="cls-2-6" d="M903.9948,499.0729S765.0582,495.25,646.0582,495.25h-13c-119,0-257.9366,3.8229-257.9366,3.8229" transform="translate(-335.3282 -381.8251)" />
    <path class="cls-2-6" d="M901.8166,533.75s-84.187-4-259.4727-4h-5.5714c-175.2857,0-259.4727,4-259.4727,4" transform="translate(-335.3282 -381.8251)" />
    <circle class="cls-2-6" cx="486.2925" cy="52.9874" r="3.4375" />
    <circle class="cls-2-6" cx="440.605" cy="52.9874" r="3.4375" />
    <circle class="cls-2-6" cx="395.48" cy="53.6749" r="3.4375" />
    <circle class="cls-2-6" cx="349.73" cy="53.6749" r="3.4375" />
    <circle class="cls-2-6" cx="303.73" cy="54.6749" r="3.4375" />
    <path class="cls-2-7" d="M337.0244,446.3984h24.7s6-4.6484,7,14.6849,0,124.7142,0,124.7142H352.3915" transform="translate(-335.3282 -381.8251)" />
    <path class="cls-2-8" d="M935.4471,585.7975h7.9445s1-105.3809,0-124.7142-7-14.6849-7-14.6849H910.52s21.6266,7.9353,22.54,12.8089" transform="translate(-335.3282 -381.8251)" />
    <path class="cls-2-7" d="M409.5774,439.9375s7.4807,42.4351,44.4807,44.1238c0,0-68.8733,5.0011-78.9366,14.0116C375.1215,498.0729,409.0582,472.4167,409.5774,439.9375Z" transform="translate(-335.3282 -381.8251)" />
    <path class="cls-2-7" d="M848.6964,544.0463s-218.9716.37-345.5133-.2963-128.0616-11.2574-128.0616-11.2574H615.7248" transform="translate(-335.3282 -381.8251)" />
</svg>
