<svg version="1.1"
	 xmlns="http://www.w3.org/2000/svg" xmlns:xlink="http://www.w3.org/1999/xlink" xmlns:a="http://ns.adobe.com/AdobeSVGViewerExtensions/3.0/"
	 x="0px" y="0px" viewBox="0 0 710.6 284.8" style="enable-background:new 0 0 710.6 284.8;"
	 xml:space="preserve">
<style type="text/css">
	.st0-1{fill:none;}
	.st1-1{fill:none;stroke:#000000;stroke-width:0.25;stroke-miterlimit:10;}
	.st2-1{fill:#ABABAB;stroke:#000000;stroke-miterlimit:10;}
	.couch1-fill{fill:#8C2828;stroke:#000000;stroke-miterlimit:10;}
	.st4-1{fill:none;stroke:#000000;stroke-miterlimit:10;}
	.st5-1-1{fill:url(#SVGID_1_);}
	.st6-1{fill:url(#SVGID_2_);}
	.st7-1{fill:url(#SVGID_3_);}
	.st8-1{fill:url(#SVGID_4_);}
	.st9-1{fill:url(#SVGID_5_);}
	.st1-10-1{fill:url(#SVGID_6_);}
	.st1-11-1{fill:url(#SVGID_7_);}
	.st1-12-1{fill:url(#SVGID_8_);}
</style>
<defs>

		<pattern  x="-65.9" y="959.3" width="1" height="3.9" patternUnits="userSpaceOnUse" id="New_Pattern_Swatch_1" viewBox="0 -3.9 1 3.9" style="overflow:visible;">
		<g>
			<rect y="-3.9" class="st0-1" width="1" height="3.9"/>
			<line class="st1-1" x1="0.5" y1="-3.9" x2="0.5" y2="0"/>
			<rect y="-3.3" class="st0-1" width="1" height="1.8"/>
		</g>
	</pattern>
</defs>
<g>
	<path class="st2-1" d="M127.6,216.4c0,0,0,25,3,25.8c3,0.8,5.4,0.8,5.8-2.4c0.4-3.5,1.5-5.1,1.5-24"/>
	<path class="st2-1" d="M583,216.4c0,0,0,25-3,25.8c-3,0.8-5.4,0.8-5.8-2.4c-0.4-3.5-1.5-5.1-1.5-24"/>
	<path class="st2-1" d="M696.2,200.1c0,0,5.6,79,0,83.6c0,0-5,2.3-7.3-2c0,0-4-10.6-2-62.2c0,0,1.3-3.6-10.9-3.6
		c-12.2,0-316.5,0-316.5,0h-8.4c0,0-304.2,0-316.5,0s-10.9,3.6-10.9,3.6c2,51.6-2,62.2-2,62.2c-2.3,4.3-7.3,2-7.3,2
		c-5.6-4.6,0-83.6,0-83.6"/>
	<path class="couch1-fill" d="M359.5,199.9c0,0,282.3,0.5,336.7,0.1c5.3,0,8.4-0.1,8.9-0.1c5.6-0.7,4.3-11.3,4.3-11.3
		c1.7-22.5-0.3-55.6,0-76.1c0.3-20.5-3.3-21.8-3.3-21.8c-25.5-11.3-70.5-10.9-70.5-10.9c3.3-12.2-3.6-54-3.6-65.5s0.3-14.9-3.6-13.4
		c-4,1.5-62.9,1.8-76.5,2.8c-13.6,1-78.8-1.3-92-2.6s-11.3,8.6-11.3,8.6c0.3-6.3-3.3-8.6-7.3-8.6s-81.8,1.7-81.8,1.7h-8.4
		c0,0-77.8-1.7-81.8-1.7s-7.6,2.3-7.3,8.6c0,0,2-9.9-11.3-8.6c-13.2,1.3-78.5,3.6-92,2.6c-13.6-1-72.5-1.2-76.5-2.8
		s-3.6,1.8-3.6,13.4s-7,53.3-3.6,65.5c0,0-45-0.3-70.5,10.9c0,0-3.6,1.3-3.3,21.8s-1.7,53.6,0,76.1c0,0-1.3,10.6,4.3,11.3
		c0.5,0.1,3.6,0.1,8.9,0.1c54.4,0.4,336.7-0.1,336.7-0.1H359.5z"/>
	<line class="st4-1" x1="23.7" y1="219.5" x2="23.7" y2="200.2"/>
	<path class="st4-1" d="M262,9.6v121.1c0,0-16.6,7.3-15.9,20c0.7,12.7,0,49.4,0,49.4"/>
	<path class="st4-1" d="M75.1,82c0,0-42.3,6.2-42.5,13.7s0,104.3,0,104.3"/>

		<pattern  id="SVGID_1_" xlink:href="#New_Pattern_Swatch_1" patternTransform="matrix(1.0191 1.4658 -1.8473 1.2844 -13649.3535 13188.8906)">
	</pattern>
	<path class="st5-1-1" d="M62.4,85.9c0,0-20.9,41-29.9,48.4l0,23.3c0,0,1.6-18.6,11.6-22.4c10-3.8,45.5-8.7,74.1-9.4
		c14.3-0.4-5,6.1-17.7-24.7S81.6,2.2,82.3,0.9c0,0-2.2-1.8-3.4,14.8s-5.7,58.1-4.1,63.6C76.5,84.7,62.4,85.9,62.4,85.9z"/>

		<pattern  id="SVGID_2_" xlink:href="#New_Pattern_Swatch_1" patternTransform="matrix(1.0191 1.4658 -1.8473 1.2844 -13649.3535 13188.8906)">
	</pattern>
	<path class="st6-1" d="M259.9,2.9c0,0-1.8,6-2.7,6.7s3.5,115.3-2,125.2c0,0,10.9-5.6,37.7-6.6c0,0-29.3-53.8-30.6-122.3"/>
	<line class="st4-1" x1="686.9" y1="219.5" x2="686.9" y2="200.2"/>
	<path class="st4-1" d="M448.6,9.6v121.1c0,0,16.6,7.3,15.9,20c-0.7,12.7,0,49.4,0,49.4"/>
	<path class="st4-1" d="M635.6,79.8c0,0-1.3,28,1.6,39.5c0,0,4,9.3-6.2,8.4c-10.2-0.9-106.4-5.8-152.5,0.1c0,0-25.5,2.8-28,4.1
		c0,0-12.1-4.8-92.5-4.8h-5.5c-80.3,0-92.5,4.8-92.5,4.8c-2.5-1.3-28-4.1-28-4.1c-46.1-5.9-142.3-0.9-152.5-0.1s-6.2-8.4-6.2-8.4
		c2.9-11.5,1.6-39.5,1.6-39.5"/>
	<path class="st4-1" d="M678,181c0,0-130.2-5-212.2,0c0,0-34-1.1-107.8-1.1h-5.5c-73.7,0-107.8,1.1-107.8,1.1c-82-5-212.2,0-212.2,0"
		/>
	<path class="st4-1" d="M635.5,82c0,0,42.3,6.2,42.5,13.7s0,104.3,0,104.3"/>

		<pattern  id="SVGID_3_" xlink:href="#New_Pattern_Swatch_1" patternTransform="matrix(-1.0191 1.4658 1.8473 1.2844 -1457.7651 13184.2031)">
	</pattern>
	<path class="st7-1" d="M648.2,85.9c0,0,20.9,41,29.9,48.4l0,23.3c0,0-1.6-18.6-11.6-22.4c-10-3.8-98.4-3.2-74.1-18.4
		C625.8,95.8,629.6,3.5,628.3,0.9c0,0,2.2-1.8,3.4,14.8s5.7,58.1,4.1,63.6C634,84.7,648.2,85.9,648.2,85.9z"/>

		<pattern  id="SVGID_4_" xlink:href="#New_Pattern_Swatch_1" patternTransform="matrix(1.0191 1.4658 -1.8473 1.2844 -13649.3535 13188.8906)">
	</pattern>
	<path class="st8-1" d="M441.6,1.9c0,0-1.9,104.7-3.4,126.8c0,0,14.5-0.7,17.4,3.1c0,0,23.9-4.8,39.3-4.5c6.6,0.1-18.9-19.9-29.4-44.4
		c-14.1-32.8-15.7-73-14.5-76.4c2.1-5.9-2.1,5.9-2.1,5.9s-2.7-11.7-14.2-11.9S441.6,1.9,441.6,1.9z"/>
</g>
</svg>
