<svg id="ff91f76c-c8ad-4bb0-b086-86684c3a0524" data-name="Layer 1" xmlns="http://www.w3.org/2000/svg" xmlns:xlink="http://www.w3.org/1999/xlink" viewBox="0 0 1677.98451 1015.61157"><defs><style>.\34 3d6ec5d-6875-4cd1-b5b5-60ee0a4c91bb,.\37 d7ba089-8eb5-4d7e-9e0e-aaa2c34e643d,.e81eaea9-f2a2-40b6-bb7c-ac622e1aca27,.f58b6478-0239-4f29-929e-5a799f83517c{fill:none;}.\32 6cd81c2-8c2d-4040-9e95-e832fa68c082,.\34 3d6ec5d-6875-4cd1-b5b5-60ee0a4c91bb,.\37 d632921-49c7-45e7-a246-bdf14690ce0a,.e81eaea9-f2a2-40b6-bb7c-ac622e1aca27,.f58b6478-0239-4f29-929e-5a799f83517c,.f6b25c1e-4ca8-46eb-a6f8-45d52e340479{stroke:#000;stroke-miterlimit:10;}.f58b6478-0239-4f29-929e-5a799f83517c{stroke-width:0.25px;}.\32 6cd81c2-8c2d-4040-9e95-e832fa68c082{fill:#c4c4c4;}.d1e9302d-5fd0-4f02-8f9b-dbb1eb7ca1a1{fill:url(#dcc8dfba-22c2-4257-8325-d566f5b1529b);}.\31 e1eb62e-0dc2-44a5-b2a0-36878a842d72,.f6b25c1e-4ca8-46eb-a6f8-45d52e340479{fill:#fff;}.\37 5630ecd-9279-4917-a1ff-1af8c6f3e8f5{fill:url(#33b30bf0-3aec-4609-a9a1-a5bf047a32b5);}.e81eaea9-f2a2-40b6-bb7c-ac622e1aca27{stroke-linecap:round;}.f6a9f44d-0388-414d-81b4-92267226fa65{fill:url(#9a7956fd-de62-4695-ab9c-a46303dfff4e);}.\37 d632921-49c7-45e7-a246-bdf14690ce0a{fill:#ababab;stroke-width:1.0198px;}.\37 d8b2c20-e1ae-4314-aa24-12c3eb23256d{fill:url(#f3537eea-ae7a-4bf3-8531-cc68c33515c5);}.bed5b767-1b13-4761-ae38-638df60dec1b{fill:url(#4ed377b7-13be-4358-b932-4bca773d30d0);}.\39 a2026dd-9cd5-43c4-be43-e405bd7ff44a{fill:url(#41d70bce-cdd4-412a-a6ac-1b1f4a738a01);}</style><pattern id="dcc8dfba-22c2-4257-8325-d566f5b1529b" data-name="SVGID 1 " width="1" height="3.9" patternTransform="matrix(1.0191, 1.4658, 1.8473, -1.2844, -11885.67707, -11642.87779)" patternUnits="userSpaceOnUse" viewBox="0 0 1 3.9"><rect class="7d7ba089-8eb5-4d7e-9e0e-aaa2c34e643d" width="1" height="3.9"/><rect class="7d7ba089-8eb5-4d7e-9e0e-aaa2c34e643d" width="1" height="3.9"/><line class="f58b6478-0239-4f29-929e-5a799f83517c" x1="0.5" y1="3.9" x2="0.5"/><rect class="7d7ba089-8eb5-4d7e-9e0e-aaa2c34e643d" y="1.5" width="1" height="1.8"/></pattern><pattern id="33b30bf0-3aec-4609-a9a1-a5bf047a32b5" data-name="SVGID 2 " width="1" height="3.9" patternTransform="matrix(-1.0191, 1.4658, -1.8473, -1.2844, -3316.98937, -11605.95368)" patternUnits="userSpaceOnUse" viewBox="0 0 1 3.9"><rect class="7d7ba089-8eb5-4d7e-9e0e-aaa2c34e643d" width="1" height="3.9"/><rect class="7d7ba089-8eb5-4d7e-9e0e-aaa2c34e643d" width="1" height="3.9"/><line class="f58b6478-0239-4f29-929e-5a799f83517c" x1="0.5" y1="3.9" x2="0.5"/><rect class="7d7ba089-8eb5-4d7e-9e0e-aaa2c34e643d" y="1.5" width="1" height="1.8"/></pattern><pattern id="9a7956fd-de62-4695-ab9c-a46303dfff4e" data-name="SVGID 3 " width="1" height="3.9" patternTransform="matrix(0.7892, 1.135, 1.4305, -0.9946, -10965.95343, -7321.72895)" patternUnits="userSpaceOnUse" viewBox="0 0 1 3.9"><rect class="7d7ba089-8eb5-4d7e-9e0e-aaa2c34e643d" width="1" height="3.9"/><rect class="7d7ba089-8eb5-4d7e-9e0e-aaa2c34e643d" width="1" height="3.9"/><line class="f58b6478-0239-4f29-929e-5a799f83517c" x1="0.5" y1="3.9" x2="0.5"/><rect class="7d7ba089-8eb5-4d7e-9e0e-aaa2c34e643d" y="1.5" width="1" height="1.8"/></pattern><pattern id="f3537eea-ae7a-4bf3-8531-cc68c33515c5" data-name="SVGID 6 " width="1" height="3.9" patternTransform="matrix(0.7892, 1.135, 1.4305, -0.9946, -10963.45148, -7319.69184)" patternUnits="userSpaceOnUse" viewBox="0 0 1 3.9"><rect class="7d7ba089-8eb5-4d7e-9e0e-aaa2c34e643d" width="1" height="3.9"/><rect class="7d7ba089-8eb5-4d7e-9e0e-aaa2c34e643d" width="1" height="3.9"/><line class="f58b6478-0239-4f29-929e-5a799f83517c" x1="0.5" y1="3.9" x2="0.5"/><rect class="7d7ba089-8eb5-4d7e-9e0e-aaa2c34e643d" y="1.5" width="1" height="1.8"/></pattern><pattern id="4ed377b7-13be-4358-b932-4bca773d30d0" data-name="SVGID 7 " width="1" height="3.9" patternTransform="matrix(-0.7892, 1.135, -1.4305, -0.9946, -4177.04508, -7307.13837)" patternUnits="userSpaceOnUse" viewBox="0 0 1 3.9"><rect class="7d7ba089-8eb5-4d7e-9e0e-aaa2c34e643d" width="1" height="3.9"/><rect class="7d7ba089-8eb5-4d7e-9e0e-aaa2c34e643d" width="1" height="3.9"/><line class="f58b6478-0239-4f29-929e-5a799f83517c" x1="0.5" y1="3.9" x2="0.5"/><rect class="7d7ba089-8eb5-4d7e-9e0e-aaa2c34e643d" y="1.5" width="1" height="1.8"/></pattern><pattern id="41d70bce-cdd4-412a-a6ac-1b1f4a738a01" data-name="SVGID 10 " width="1" height="3.9" patternTransform="matrix(-0.7892, 1.135, -1.4305, -0.9946, -4179.54605, -7305.10029)" patternUnits="userSpaceOnUse" viewBox="0 0 1 3.9"><rect class="7d7ba089-8eb5-4d7e-9e0e-aaa2c34e643d" width="1" height="3.9"/><rect class="7d7ba089-8eb5-4d7e-9e0e-aaa2c34e643d" width="1" height="3.9"/><line class="f58b6478-0239-4f29-929e-5a799f83517c" x1="0.5" y1="3.9" x2="0.5"/><rect class="7d7ba089-8eb5-4d7e-9e0e-aaa2c34e643d" y="1.5" width="1" height="1.8"/></pattern></defs><title>living</title><polygon class="26cd81c2-8c2d-4040-9e95-e832fa68c082" points="90.394 313.546 279.494 357.746 278.694 503.446 89.994 513.446 90.394 313.546"/><line class="43d6ec5d-6875-4cd1-b5b5-60ee0a4c91bb" x1="360.99402" y1="667.24637" x2="36.894" y2="790.44638"/><line class="43d6ec5d-6875-4cd1-b5b5-60ee0a4c91bb" x1="361.694" y1="648.34641" x2="59.294" y2="763.14639"/><polygon class="43d6ec5d-6875-4cd1-b5b5-60ee0a4c91bb" points="299.794 509.646 89.994 519.846 90.494 304.146 300.594 350.846 299.794 509.646"/><polyline class="43d6ec5d-6875-4cd1-b5b5-60ee0a4c91bb" points="90.394 313.546 279.494 357.746 278.694 503.446 89.994 513.446"/><polyline class="43d6ec5d-6875-4cd1-b5b5-60ee0a4c91bb" points="360.994 648.946 741.694 648.946 917.894 648.946 1298.594 648.946"/><line class="43d6ec5d-6875-4cd1-b5b5-60ee0a4c91bb" x1="358.59399" y1="647.74637" x2="60.594" y2="760.84641"/><path class="43d6ec5d-6875-4cd1-b5b5-60ee0a4c91bb" d="M358.7,598" transform="translate(-0.706 -36.55362)"/><line class="43d6ec5d-6875-4cd1-b5b5-60ee0a4c91bb" x1="360.99402" y1="163.44638" x2="37.994" y2="0.44638"/><line class="43d6ec5d-6875-4cd1-b5b5-60ee0a4c91bb" x1="361.694" y1="182.34638" x2="93.994" y2="47.44638"/><path class="43d6ec5d-6875-4cd1-b5b5-60ee0a4c91bb" d="M103.5,90.7" transform="translate(-0.706 -36.55362)"/><line class="43d6ec5d-6875-4cd1-b5b5-60ee0a4c91bb" x1="109.394" y1="57.44638" x2="102.794" y2="54.14638"/><line class="43d6ec5d-6875-4cd1-b5b5-60ee0a4c91bb" x1="358.59399" y1="182.94638" x2="109.394" y2="57.44638"/><line class="43d6ec5d-6875-4cd1-b5b5-60ee0a4c91bb" x1="279.49402" y1="357.74637" x2="300.59399" y2="350.84638"/><line class="43d6ec5d-6875-4cd1-b5b5-60ee0a4c91bb" x1="278.694" y1="503.44638" x2="299.794" y2="509.64639"/><polygon class="d1e9302d-5fd0-4f02-8f9b-dbb1eb7ca1a1" points="89.994 513.446 278.694 503.446 279.494 357.746 90.394 313.546 90.494 304.146 300.594 350.846 299.794 509.646 89.994 519.846 89.994 513.446"/><path class="1e1eb62e-0dc2-44a5-b2a0-36878a842d72" d="M907.5,451.4" transform="translate(-0.706 -36.55362)"/><polygon class="26cd81c2-8c2d-4040-9e95-e832fa68c082" points="1582.194 91.546 1343.094 200.746 1343.894 625.446 1582.594 716.446 1582.194 91.546"/><polyline class="43d6ec5d-6875-4cd1-b5b5-60ee0a4c91bb" points="1301.594 183.246 1301.594 647.346 1298.594 648.346 1298.594 667.246 878.494 667.246 781.094 667.246 360.994 667.246 360.994 648.346 357.994 647.346 357.994 183.246"/><line class="43d6ec5d-6875-4cd1-b5b5-60ee0a4c91bb" x1="1298.59405" y1="667.24637" x2="1622.69403" y2="790.44638"/><line class="43d6ec5d-6875-4cd1-b5b5-60ee0a4c91bb" x1="1297.89398" y1="648.34641" x2="1600.294" y2="763.14639"/><polygon class="43d6ec5d-6875-4cd1-b5b5-60ee0a4c91bb" points="1322.794 631.646 1582.594 722.846 1582.094 82.146 1321.994 193.846 1322.794 631.646"/><polyline class="43d6ec5d-6875-4cd1-b5b5-60ee0a4c91bb" points="1582.194 91.546 1343.094 200.746 1343.894 625.446 1582.594 716.446"/><polyline class="43d6ec5d-6875-4cd1-b5b5-60ee0a4c91bb" points="1300.894 647.346 920.194 647.346 739.394 647.346 358.694 647.346"/><line class="43d6ec5d-6875-4cd1-b5b5-60ee0a4c91bb" x1="1300.99395" y1="647.74637" x2="1598.99395" y2="760.84641"/><path class="43d6ec5d-6875-4cd1-b5b5-60ee0a4c91bb" d="M1302.3,598" transform="translate(-0.706 -36.55362)"/><polyline class="43d6ec5d-6875-4cd1-b5b5-60ee0a4c91bb" points="1301.594 183.346 1298.594 182.346 1298.594 163.446 878.494 163.446 781.094 163.446 360.994 163.446 360.994 182.346 357.994 183.346"/><line class="43d6ec5d-6875-4cd1-b5b5-60ee0a4c91bb" x1="1298.59405" y1="163.44638" x2="1621.59405" y2="0.44638"/><line class="43d6ec5d-6875-4cd1-b5b5-60ee0a4c91bb" x1="1297.89398" y1="182.34638" x2="1565.59405" y2="47.44638"/><polyline class="43d6ec5d-6875-4cd1-b5b5-60ee0a4c91bb" points="1298.594 181.746 1097.894 181.746 561.694 181.746 360.994 181.746"/><polyline class="43d6ec5d-6875-4cd1-b5b5-60ee0a4c91bb" points="1300.894 183.346 1100.194 183.346 559.394 183.346 358.694 183.346"/><path class="43d6ec5d-6875-4cd1-b5b5-60ee0a4c91bb" d="M1557.5,90.7" transform="translate(-0.706 -36.55362)"/><line class="43d6ec5d-6875-4cd1-b5b5-60ee0a4c91bb" x1="1550.19403" y1="57.44638" x2="1556.794" y2="54.14638"/><line class="43d6ec5d-6875-4cd1-b5b5-60ee0a4c91bb" x1="1300.99395" y1="182.94638" x2="1550.19403" y2="57.44638"/><line class="43d6ec5d-6875-4cd1-b5b5-60ee0a4c91bb" x1="1343.09405" y1="201.74638" x2="1321.99395" y2="194.84638"/><line class="43d6ec5d-6875-4cd1-b5b5-60ee0a4c91bb" x1="1343.99395" y1="624.54636" x2="1322.89398" y2="630.64639"/><polygon class="75630ecd-9279-4917-a1ff-1af8c6f3e8f5" points="1582.594 716.446 1343.894 625.446 1343.094 200.746 1582.194 91.546 1582.094 82.146 1321.994 193.846 1322.794 631.646 1582.594 722.846 1582.594 716.446"/><polygon class="1e1eb62e-0dc2-44a5-b2a0-36878a842d72" points="91.294 388.746 152.094 328.846 199.494 340.046 91.294 448.246 91.294 388.746"/><polygon class="1e1eb62e-0dc2-44a5-b2a0-36878a842d72" points="133.794 510.146 278.894 366.046 278.894 387.546 154.794 509.646 133.794 510.146"/><polygon class="1e1eb62e-0dc2-44a5-b2a0-36878a842d72" points="279.194 413.546 183.294 507.446 195.294 507.446 278.194 426.546 279.194 413.546"/><polygon class="1e1eb62e-0dc2-44a5-b2a0-36878a842d72" points="1344.494 512.646 1524.594 693.646 1569.094 710.646 1343.894 484.746 1344.494 512.646"/><polygon class="1e1eb62e-0dc2-44a5-b2a0-36878a842d72" points="1581.794 608.746 1343.894 369.046 1343.894 313.246 1581.994 552.346 1581.794 608.746"/><polygon class="1e1eb62e-0dc2-44a5-b2a0-36878a842d72" points="1581.994 494.546 1344.994 252.546 1344.994 214.946 1581.494 455.446 1581.994 494.546"/><polygon class="1e1eb62e-0dc2-44a5-b2a0-36878a842d72" points="1581.594 298.446 1440.194 157.046 1581.194 93.546 1581.594 298.446"/><line class="7d7ba089-8eb5-4d7e-9e0e-aaa2c34e643d" x1="398.59399" y1="1004.14633" x2="739.39398" y2="647.34641"/><line class="43d6ec5d-6875-4cd1-b5b5-60ee0a4c91bb" x1="757.794" y1="903.24637" x2="807.89398" y2="667.24637"/><line class="43d6ec5d-6875-4cd1-b5b5-60ee0a4c91bb" x1="612.39398" y1="1001.44638" x2="763.99402" y2="667.94638"/><line class="43d6ec5d-6875-4cd1-b5b5-60ee0a4c91bb" x1="374.49402" y1="997.54636" x2="674.89398" y2="667.24637"/><line class="43d6ec5d-6875-4cd1-b5b5-60ee0a4c91bb" x1="264.39401" y1="1015.24643" x2="636.39398" y2="667.24637"/><line class="43d6ec5d-6875-4cd1-b5b5-60ee0a4c91bb" x1="174.39401" y1="990.04636" x2="593.09399" y2="668.84641"/><line class="43d6ec5d-6875-4cd1-b5b5-60ee0a4c91bb" x1="54.394" y1="990.04636" x2="551.794" y2="667.24637"/><line class="43d6ec5d-6875-4cd1-b5b5-60ee0a4c91bb" x1="54.094" y1="920.84641" x2="503.294" y2="667.54636"/><line class="43d6ec5d-6875-4cd1-b5b5-60ee0a4c91bb" x1="103.894" y1="836.44638" x2="462.794" y2="667.54636"/><line class="43d6ec5d-6875-4cd1-b5b5-60ee0a4c91bb" x1="0.194" y1="838.24637" x2="403.294" y2="668.54636"/><line class="43d6ec5d-6875-4cd1-b5b5-60ee0a4c91bb" x1="535.69403" y1="934.64639" x2="718.39398" y2="667.84641"/><path class="f6b25c1e-4ca8-46eb-a6f8-45d52e340479" d="M531.2,725s14.8.6,23.7,6.5a2.632,2.632,0,0,1,0,4.2S548.6,741,526,741h-1.8c-22.6,0-28.9-5.3-28.9-5.3-2.4-2.4,0-4.2,0-4.2,8.9-5.9,23.7-6.5,23.7-6.5l.6-.5a28.63274,28.63274,0,0,0,3-10.7V669.3c0-30.2-8.4-31.9-8.4-31.9-26-1.3-38.7-4.3-42.6-6.3-2.3-1.2.2-2.1.2-2.1,16-2.9,50-3.3,50-3.3h6.9s34,.4,50,3.3c0,0,2.5.9.2,2.1-3.9,2-16.6,5-42.6,6.3,0,0-8.4,1.7-8.4,31.9v44.5a28.63274,28.63274,0,0,0,3,10.7Z" transform="translate(-0.706 -36.55362)"/><path class="e81eaea9-f2a2-40b6-bb7c-ac622e1aca27" d="M519.5,724.5a12.95191,12.95191,0,0,1-8.8,7" transform="translate(-0.706 -36.55362)"/><path class="e81eaea9-f2a2-40b6-bb7c-ac622e1aca27" d="M539.5,731.4c-4.3-.8-7-3.7-8.8-7" transform="translate(-0.706 -36.55362)"/><path class="43d6ec5d-6875-4cd1-b5b5-60ee0a4c91bb" d="M579.4,629.8s-6.7,3.3-53.4,3.3h-1.8c-46.7,0-53.4-3.3-53.4-3.3" transform="translate(-0.706 -36.55362)"/><path class="f6a9f44d-0388-414d-81b4-92267226fa65" d="M580,629.9s-6.7,3.3-53.4,3.3h-1.8c-46.7,0-53.4-3.3-53.4-3.3l.7,1.2c-2.3-1.2.2-2.1.2-2.1,16-2.9,50-3.3,50-3.3h6.9s34,.4,50,3.3c0,0,2.5.9.2,2.1Z" transform="translate(-0.706 -36.55362)"/><path class="f6a9f44d-0388-414d-81b4-92267226fa65" d="M522.5,713.8s-1.8,19.5-17.6,17.6l-6.2-1.9s-17,7.9,20.4,11.3" transform="translate(-0.706 -36.55362)"/><path class="f6a9f44d-0388-414d-81b4-92267226fa65" d="M471.3,629.9s6.1,6,42.7,7.4c0,0,4.1-.6,7,13.3,0,0,7.1-3.4,14-12.8" transform="translate(-0.706 -36.55362)"/><path class="43d6ec5d-6875-4cd1-b5b5-60ee0a4c91bb" d="M532.4,577.3v52.2a14.22662,14.22662,0,0,1-6.8,1.7h-.9a14.72145,14.72145,0,0,1-6.8-1.7V577.3" transform="translate(-0.706 -36.55362)"/><path class="43d6ec5d-6875-4cd1-b5b5-60ee0a4c91bb" d="M532.4,617.2a20.3588,20.3588,0,0,1-6.8,1.1h-.9a21.10049,21.10049,0,0,1-6.8-1.1" transform="translate(-0.706 -36.55362)"/><path class="f6b25c1e-4ca8-46eb-a6f8-45d52e340479" d="M532.4,577.3v52.2a14.22662,14.22662,0,0,1-6.8,1.7h-.9a14.72145,14.72145,0,0,1-6.8-1.7V577.3" transform="translate(-0.706 -36.55362)"/><path class="7d632921-49c7-45e7-a246-bdf14690ce0a" d="M532.4,566.1v52.2a14.22662,14.22662,0,0,1-6.8,1.7h-.9a14.72145,14.72145,0,0,1-6.8-1.7V566.1" transform="translate(-0.706 -36.55362)"/><path class="f6b25c1e-4ca8-46eb-a6f8-45d52e340479" d="M525.6,585c23.9,0,29.2-4,29.2-4V548.3a140.62375,140.62375,0,0,0-29.6-2.2,210.77556,210.77556,0,0,0-29.6,2.2V581s5.3,4,29.2,4Z" transform="translate(-0.706 -36.55362)"/><path class="7d8b2c20-e1ae-4314-aa24-12c3eb23256d" d="M525.6,585c23.9,0,29.2-4,29.2-4V548.3a140.62375,140.62375,0,0,0-29.6-2.2,210.77556,210.77556,0,0,0-29.6,2.2V581s5.3,4,29.2,4Z" transform="translate(-0.706 -36.55362)"/><line class="7d7ba089-8eb5-4d7e-9e0e-aaa2c34e643d" x1="1260.99395" y1="1004.14633" x2="920.19403" y2="647.34641"/><line class="43d6ec5d-6875-4cd1-b5b5-60ee0a4c91bb" x1="913.09399" y1="972.04636" x2="851.69403" y2="667.24637"/><line class="43d6ec5d-6875-4cd1-b5b5-60ee0a4c91bb" x1="1048.794" y1="995.54636" x2="895.59399" y2="667.94638"/><line class="43d6ec5d-6875-4cd1-b5b5-60ee0a4c91bb" x1="1261.09405" y1="968.04636" x2="984.69403" y2="667.24637"/><line class="43d6ec5d-6875-4cd1-b5b5-60ee0a4c91bb" x1="1301.59405" y1="912.94638" x2="1023.19403" y2="667.24637"/><line class="43d6ec5d-6875-4cd1-b5b5-60ee0a4c91bb" x1="1406.39398" y1="929.54636" x2="1066.49395" y2="668.84641"/><line class="43d6ec5d-6875-4cd1-b5b5-60ee0a4c91bb" x1="1510.89398" y1="928.84641" x2="1107.794" y2="667.24637"/><line class="43d6ec5d-6875-4cd1-b5b5-60ee0a4c91bb" x1="1664.09405" y1="952.34641" x2="1156.294" y2="667.54636"/><line class="43d6ec5d-6875-4cd1-b5b5-60ee0a4c91bb" x1="1555.69403" y1="836.44638" x2="1196.794" y2="667.54636"/><line class="43d6ec5d-6875-4cd1-b5b5-60ee0a4c91bb" x1="1677.794" y1="842.24637" x2="1256.294" y2="668.54636"/><line class="43d6ec5d-6875-4cd1-b5b5-60ee0a4c91bb" x1="1134.49395" y1="948.94638" x2="941.19403" y2="667.84641"/><path class="f6b25c1e-4ca8-46eb-a6f8-45d52e340479" d="M1129.8,725s-14.8.6-23.7,6.5a2.632,2.632,0,0,0,0,4.2s6.3,5.3,28.9,5.3h1.8c22.6,0,28.9-5.3,28.9-5.3,2.4-2.4,0-4.2,0-4.2-8.9-5.9-23.7-6.5-23.7-6.5l-.6-.5a28.63407,28.63407,0,0,1-3-10.7V669.3c0-30.2,8.4-31.9,8.4-31.9,26-1.3,38.7-4.3,42.6-6.3,2.3-1.2-.2-2.1-.2-2.1-16-2.9-50-3.3-50-3.3h-6.9s-34,.4-50,3.3c0,0-2.5.9-.2,2.1,3.9,2,16.6,5,42.6,6.3,0,0,8.4,1.7,8.4,31.9v44.5a28.63409,28.63409,0,0,1-3,10.7Z" transform="translate(-0.706 -36.55362)"/><path class="e81eaea9-f2a2-40b6-bb7c-ac622e1aca27" d="M1141.5,724.5a12.95176,12.95176,0,0,0,8.8,7" transform="translate(-0.706 -36.55362)"/><path class="e81eaea9-f2a2-40b6-bb7c-ac622e1aca27" d="M1121.5,731.4c4.3-.8,7-3.7,8.8-7" transform="translate(-0.706 -36.55362)"/><path class="43d6ec5d-6875-4cd1-b5b5-60ee0a4c91bb" d="M1081.6,629.8s6.7,3.3,53.4,3.3h1.8c46.7,0,53.4-3.3,53.4-3.3" transform="translate(-0.706 -36.55362)"/><path class="bed5b767-1b13-4761-ae38-638df60dec1b" d="M1081,629.9s6.7,3.3,53.4,3.3h1.8c46.7,0,53.4-3.3,53.4-3.3l-.7,1.2c2.3-1.2-.2-2.1-.2-2.1-16-2.9-50-3.3-50-3.3h-6.9s-34,.4-50,3.3c0,0-2.5.9-.2,2.1Z" transform="translate(-0.706 -36.55362)"/><path class="bed5b767-1b13-4761-ae38-638df60dec1b" d="M1138.5,713.8s1.8,19.5,17.6,17.6l6.2-1.9s17,7.9-20.4,11.3" transform="translate(-0.706 -36.55362)"/><path class="bed5b767-1b13-4761-ae38-638df60dec1b" d="M1189.7,629.9s-6.1,6-42.7,7.4c0,0-4.1-.6-7,13.3,0,0-7.1-3.4-14-12.8" transform="translate(-0.706 -36.55362)"/><path class="43d6ec5d-6875-4cd1-b5b5-60ee0a4c91bb" d="M1128.6,577.3v52.2a14.227,14.227,0,0,0,6.8,1.7h.9a14.72186,14.72186,0,0,0,6.8-1.7V577.3" transform="translate(-0.706 -36.55362)"/><path class="43d6ec5d-6875-4cd1-b5b5-60ee0a4c91bb" d="M1128.6,617.2a20.35939,20.35939,0,0,0,6.8,1.1h.9a21.10112,21.10112,0,0,0,6.8-1.1" transform="translate(-0.706 -36.55362)"/><path class="f6b25c1e-4ca8-46eb-a6f8-45d52e340479" d="M1128.6,577.3v52.2a14.227,14.227,0,0,0,6.8,1.7h.9a14.72186,14.72186,0,0,0,6.8-1.7V577.3" transform="translate(-0.706 -36.55362)"/><path class="7d632921-49c7-45e7-a246-bdf14690ce0a" d="M1128.6,566.1v52.2a14.227,14.227,0,0,0,6.8,1.7h.9a14.72186,14.72186,0,0,0,6.8-1.7V566.1" transform="translate(-0.706 -36.55362)"/><path class="f6b25c1e-4ca8-46eb-a6f8-45d52e340479" d="M1135.4,585c-23.9,0-29.2-4-29.2-4V548.3a140.62392,140.62392,0,0,1,29.6-2.2,210.77448,210.77448,0,0,1,29.6,2.2V581s-5.3,4-29.2,4Z" transform="translate(-0.706 -36.55362)"/><path class="9a2026dd-9cd5-43c4-be43-e405bd7ff44a" d="M1135.4,585c-23.9,0-29.2-4-29.2-4V548.3a140.62392,140.62392,0,0,1,29.6-2.2,210.77448,210.77448,0,0,1,29.6,2.2V581s-5.3,4-29.2,4Z" transform="translate(-0.706 -36.55362)"/></svg>